<?xml version="1.0" encoding="UTF-8"?>
<!-- This file is generated by npm run build:icons -->
<svg xmlns="http://www.w3.org/2000/svg" xmlns:xlink="http://www.w3.org/1999/xlink" width="0" height="0">
<defs>
<symbol viewBox="0 0 24 24" id="bell">
<path d="M18.0001 11C17.4001 11 17.0001 10.6 17.0001 10C17.0001 7.20003 14.8001 5.00001 12 5.00001C9.20003 5.00001 7.00001 7.20003 7.00001 10C7.00001 10.6 6.60001 11 6.00001 11C5.4 11 5 10.6 5 10C5 6.10002 8.10002 3 12 3C15.9001 3 19.0001 6.10002 19.0001 10C19.0001 10.6 18.6001 11 18.0001 11Z"></path>
<path d="M21 20C18.8 20 17 17.4 17 14C17 13.4 17.4 13 18 13C18.6 13 19 13.4 19 14C19 16.3 20.1 18 21 18C21.6 18 22 18.4 22 19C22 19.6 21.6 20 21 20Z"></path>
<path d="M3.00001 20C2.4 20 2 19.6 2 19C2 18.4 2.4 18 3.00001 18C3.90001 18 5.00002 16.3 5.00002 14C5.00002 13.4 5.40002 13 6.00002 13C6.60003 13 7.00003 13.4 7.00003 14C7.00003 17.4 5.20002 20 3.00001 20Z"></path>
<path d="M21.0001 20H3.00001C2.4 20 2 19.6 2 19C2 18.4 2.4 18 3.00001 18H21.0001C21.6001 18 22.0001 18.4 22.0001 19C22.0001 19.6 21.6001 20 21.0001 20Z"></path>
<path d="M6.00001 15C5.4 15 5 14.6 5 14V10C5 9.4 5.4 9 6.00001 9C6.60001 9 7.00001 9.4 7.00001 10V14C7.00001 14.6 6.60001 15 6.00001 15Z"></path>
<path d="M18 15C17.4 15 17 14.6 17 14V10C17 9.4 17.4 9 18 9C18.6 9 19 9.4 19 10V14C19 14.6 18.6 15 18 15Z"></path>
<path d="M12 23.9999C9.80001 23.9999 8 22.1999 8 19.9999C8 19.4999 8.1 19.0999 8.2 18.5999C8.4 18.0999 9.00001 17.7999 9.50001 17.9999C10 18.1999 10.3 18.7999 10.1 19.2999C10 19.5999 10 19.7999 10 19.9999C10 21.0999 10.9 21.9999 12 21.9999C13.1 21.9999 14 21.0999 14 19.9999C14 19.7999 14 19.5999 13.9 19.3999C13.7 18.8999 14 18.2999 14.5 18.0999C15 17.8999 15.6 18.1999 15.8 18.6999C16 19.0999 16 19.5999 16 20.0999C16 22.1999 14.2 23.9999 12 23.9999Z"></path>
<path d="M12 5.00003C11.4 5.00003 11 4.60003 11 4.00002V1.00001C11 0.400002 11.4 0 12 0C12.6 0 13 0.400002 13 1.00001V4.00002C13 4.60003 12.6 5.00003 12 5.00003Z"></path>
</symbol>
<symbol viewBox="0 0 24 24" id="block">
<path d="M12 3C7.032 3 3 7.032 3 12C3 16.968 7.032 21 12 21C16.968 21 21 16.968 21 12C21 7.032 16.968 3 12 3ZM12 19.2C8.022 19.2 4.8 15.978 4.8 12C4.8 10.335 5.367 8.805 6.321 7.59L16.41 17.679C15.195 18.633 13.665 19.2 12 19.2ZM17.679 16.41L7.59 6.321C8.805 5.367 10.335 4.8 12 4.8C15.978 4.8 19.2 8.022 19.2 12C19.2 13.665 18.633 15.195 17.679 16.41Z"></path>
</symbol>
<symbol viewBox="0 0 25 24" id="bookmark">
<path d="M19.167 0H5.83366C4.36699 0 3.18033 1.2 3.18033 2.66667L3.16699 24L12.5003 20L21.8337 24V2.66667C21.8337 1.2 20.6337 0 19.167 0ZM19.167 20L12.5003 17.0933L5.83366 20V2.66667H12.5003H19.167V20Z"></path>
</symbol>
<symbol viewBox="0 0 25 24" id="bookmarkFilled">
<path d="M19.334 0H6.00065C4.53398 0 3.34732 1.2 3.34732 2.66667L3.33398 24L12.6673 20L22.0006 24V2.66667C22.0006 1.2 20.8007 0 19.334 0Z"></path>
</symbol>
<symbol viewBox="0 0 24 24" id="comment">
<g clip-path="url(#clip0_954_7598)">
<path fill-rule="evenodd" clip-rule="evenodd" d="M8.56929 17.3737L11.9841 20.7885L15.399 17.3737H19.5C20.5493 17.3737 21.4 16.523 21.4 15.4737V4.5C21.4 3.45066 20.5493 2.6 19.5 2.6H4.5C3.45066 2.6 2.6 3.45066 2.6 4.5V15.4737C2.6 16.523 3.45066 17.3737 4.5 17.3737H8.56929ZM0 4.5C0 2.01472 2.01472 0 4.5 0H19.5C21.9853 0 24 2.01472 24 4.5V15.4737C24 17.959 21.9853 19.9737 19.5 19.9737H16.4759L12.7796 23.67C12.3403 24.1093 11.628 24.1093 11.1886 23.67L7.49233 19.9737H4.5C2.01472 19.9737 0 17.959 0 15.4737V4.5Z"></path>
<path fill-rule="evenodd" clip-rule="evenodd" d="M5.5 6.30005C5.5 5.74776 5.94772 5.30005 6.5 5.30005H17.3333C17.8855 5.30005 18.3333 5.74776 18.3333 6.30005C18.3333 6.85233 17.8855 7.30005 17.3333 7.30005H6.5C5.94772 7.30005 5.5 6.85233 5.5 6.30005Z"></path>
<path fill-rule="evenodd" clip-rule="evenodd" d="M5.5 10.3979C5.5 9.84566 5.94772 9.39795 6.5 9.39795H12.75C13.3023 9.39795 13.75 9.84566 13.75 10.3979C13.75 10.9502 13.3023 11.3979 12.75 11.3979H6.5C5.94772 11.3979 5.5 10.9502 5.5 10.3979Z"></path>
<path fill-rule="evenodd" clip-rule="evenodd" d="M5.5 14.1162C5.5 13.5639 5.94772 13.1162 6.5 13.1162H15.5C16.0523 13.1162 16.5 13.5639 16.5 14.1162C16.5 14.6685 16.0523 15.1162 15.5 15.1162H6.5C5.94772 15.1162 5.5 14.6685 5.5 14.1162Z"></path>
</g>
<defs>
<clipPath id="clip0_954_7598">
<rect width="24" height="23.9995" fill="white"></rect>
</clipPath>
</defs>
</symbol>
<symbol viewBox="0 0 24 24" id="commentFilled">
<g clip-path="url(#clip0_954_7606)">
<path d="M12 24C11.7 24 11.5 23.9 11.3 23.7L7.3 19.7C6.9 19.3 6.9 18.7 7.3 18.3C7.7 17.9 8.3 17.9 8.7 18.3H12H15.3C15.7 17.9 16.3 17.9 16.7 18.3C17.1 18.7 17.1 19.3 16.7 19.7L12.7 23.7C12.5 23.9 12.3 24 12 24Z"></path>
<path fill-rule="evenodd" clip-rule="evenodd" d="M3 -0.00012207C1.34315 -0.00012207 0 1.34302 0 2.99987V16.909C0 18.5658 1.34315 19.909 3 19.909H21C22.6569 19.909 24 18.5658 24 16.909V2.99988C24 1.34302 22.6569 -0.00012207 21 -0.00012207H3ZM6.00001 6.99978H18C18.6 6.99978 19 6.59978 19 5.99978C19 5.39978 18.6 4.99978 18 4.99978H6.00001C5.40001 4.99978 5.00001 5.39978 5.00001 5.99978C5.00001 6.59978 5.40001 6.99978 6.00001 6.99978ZM13 10.9999H6.00001C5.40001 10.9999 5.00001 10.5999 5.00001 9.99987C5.00001 9.39987 5.40001 8.99987 6.00001 8.99987H13C13.6 8.99987 14 9.39987 14 9.99987C14 10.5999 13.6 10.9999 13 10.9999ZM6.00001 15H16C16.6 15 17 14.6 17 14C17 13.4 16.6 13 16 13H6.00001C5.40001 13 5.00001 13.4 5.00001 14C5.00001 14.6 5.40001 15 6.00001 15Z"></path>
</g>
<defs>
<clipPath id="clip0_954_7606">
<rect width="24" height="24" fill="white"></rect>
</clipPath>
</defs>
</symbol>
<symbol viewBox="0 0 24 24" id="dots">
<circle cx="12" cy="12" r="2.25" ></circle>
<circle cx="18.75" cy="12" r="2.25" ></circle>
<circle cx="5.25" cy="12" r="2.25" ></circle>
</symbol>
<symbol viewBox="0 0 24 24" id="flag">
<path d="M6.01109 20.9811H3.76522C3.31605 20.9811 3.0166 20.6816 3.0166 20.2325V3.76278C3.0166 3.31361 3.31605 3.01416 3.76522 3.01416H6.01109C6.46026 3.01416 6.75971 3.31361 6.75971 3.76278V20.2325C6.75971 20.6816 6.46026 20.9811 6.01109 20.9811ZM4.51384 19.4838H5.26247V4.5114H4.51384V19.4838Z"></path>
<path d="M10.5036 14.2435C8.93146 14.2435 5.93697 13.4949 5.86211 13.4949C5.4878 13.42 5.18835 12.9709 5.33807 12.5965C5.41293 12.2222 5.86211 11.9228 6.23642 12.0725C6.23642 12.0725 9.15604 12.8211 10.5784 12.8211C11.2522 12.8211 12.3751 12.6714 13.4232 12.4468C14.621 12.2222 15.7439 12.0725 16.5674 12.0725C17.5406 12.0725 18.7384 12.372 19.5619 12.5965V5.03546C18.7384 4.88574 17.4657 4.51143 16.4925 4.51143C15.8188 4.51143 14.6958 4.66115 13.6478 4.88574C12.45 5.11033 11.327 5.26005 10.5036 5.26005C8.93146 5.26005 5.93697 4.51143 5.86211 4.51143C5.41293 4.3617 5.18835 3.98739 5.26321 3.61308C5.41293 3.16391 5.78724 2.93932 6.16156 3.01419C6.16156 3.01419 9.08118 3.76281 10.5036 3.76281C11.1773 3.76281 12.3003 3.61308 13.3483 3.3885C14.5461 3.16391 15.669 3.01419 16.4925 3.01419C18.0646 3.01419 20.3854 3.76281 20.4602 3.83767C20.7597 3.91253 20.9843 4.21198 20.9843 4.51143V13.4949C20.9843 13.7195 20.8345 13.9441 20.6848 14.0938C20.4602 14.2435 20.2356 14.2435 20.0111 14.1686C20.0111 14.1686 17.8401 13.4949 16.4925 13.4949C15.8188 13.4949 14.6958 13.6446 13.6478 13.8692C12.45 14.0938 11.327 14.2435 10.5036 14.2435Z"></path>
</symbol>
<symbol viewBox="0 0 24 24" id="follow">
<path d="M11.9984 5.36327C13.3567 5.36327 14.4531 6.4597 14.4531 7.81797C14.4531 9.17624 13.3567 10.2727 11.9984 10.2727C10.6401 10.2727 9.54369 9.17624 9.54369 7.81797C9.54369 6.4597 10.6401 5.36327 11.9984 5.36327ZM11.9984 3.72681C9.74007 3.72681 7.90723 5.55965 7.90723 7.81797C7.90723 10.0763 9.74007 11.9091 11.9984 11.9091C14.2567 11.9091 16.0896 10.0763 16.0896 7.81797C16.0896 5.55965 14.2567 3.72681 11.9984 3.72681Z"></path>
<path d="M11.9996 15.1821C15.518 15.1821 19.1673 16.4422 19.3637 17.195V18.4551H4.63549V17.195C4.83187 16.4422 8.48118 15.1821 11.9996 15.1821ZM11.9996 13.5457C8.98849 13.5457 2.99902 14.6257 2.99902 17.195V20.0915H21.0001V17.195C21.0001 14.6257 15.0107 13.5457 11.9996 13.5457Z"></path>
<path d="M23.5554 8.98407H21.5246V7H20.0191V8.98407H18V10.4079H20.0191V12.392H21.5246V10.4079H23.5554V8.98407Z"></path>
</symbol>
<symbol viewBox="0 0 25 24" id="heart">
<g clip-path="url(#clip0_954_7542)">
<path fill-rule="evenodd" clip-rule="evenodd" d="M2.48768 3.99392C3.74976 2.65621 5.44083 2 7.13195 2C8.77154 2 10.4361 2.63014 11.6727 3.86527C11.6735 3.86613 11.6744 3.86699 11.6753 3.86785L12.7354 4.92795L13.7955 3.86785C15.0575 2.63102 16.6982 2 18.3388 2C19.9795 2 21.6453 2.63102 22.8821 3.86785C25.381 6.36667 25.381 10.4558 22.8317 12.9543L13.4675 22.3186C13.0636 22.7477 12.382 22.7477 11.9529 22.3186L2.68963 13.0553C0.216117 10.5817 0.0644927 6.54317 2.48768 3.99392ZM20.944 5.74846C20.2435 5.06385 19.29 4.7 18.3388 4.7C17.3942 4.7 16.4398 5.0611 15.6938 5.78787L12.7354 8.74633L9.76607 5.77704C9.06301 5.07398 8.09634 4.7 7.13195 4.7C6.14028 4.7 5.17419 5.08087 4.45158 5.84678L4.44466 5.85412C3.07968 7.29011 3.1096 9.65682 4.59882 11.1461C4.59882 11.1461 4.59881 11.1461 4.59882 11.1461L12.7102 19.2575L20.9321 11.0356L20.9418 11.0261C22.4142 9.58298 22.4142 7.21861 20.9729 5.77738L20.944 5.74846Z"></path>
</g>
<defs>
<clipPath id="clip0_954_7542">
<rect width="24" height="24" fill="white" transform="translate(0.75)"></rect>
</clipPath>
</defs>
</symbol>
<symbol viewBox="0 0 25 24" id="heartFilled">
<g clip-path="url(#clip0_954_7571)">
<path d="M22.4651 3.86785C21.2283 2.63102 19.5625 2 17.9218 2C16.2812 2 14.6405 2.63102 13.3785 3.86785L12.3184 4.92795L11.2583 3.86785C10.0214 2.63102 8.35569 2 6.71496 2C5.02384 2 3.33276 2.65621 2.07069 3.99392C-0.352499 6.54317 -0.200876 10.5817 2.27264 13.0553L11.5359 22.3186C11.965 22.7477 12.6466 22.7477 13.0505 22.3186L22.4147 12.9543C24.964 10.4558 24.964 6.36698 22.4651 3.86816L22.4651 3.86785Z"></path>
</g>
<defs>
<clipPath id="clip0_954_7571">
<rect width="24" height="24" fill="white" transform="translate(0.333008)"></rect>
</clipPath>
</defs>
</symbol>
<symbol viewBox="0 0 24 24" id="hide">
<path d="M12 5.99995C15.79 5.99995 19.17 8.12995 20.82 11.5C20.23 12.72 19.4 13.77 18.41 14.62L19.82 16.03C21.21 14.8 22.31 13.26 23 11.5C21.27 7.10995 17 3.99995 12 3.99995C10.73 3.99995 9.51 4.19995 8.36 4.56995L10.01 6.21995C10.66 6.08995 11.32 5.99995 12 5.99995ZM10.93 7.13995L13 9.20995C13.57 9.45995 14.03 9.91995 14.28 10.49L16.35 12.56C16.43 12.22 16.49 11.86 16.49 11.49C16.5 9.00995 14.48 6.99995 12 6.99995C11.63 6.99995 11.28 7.04995 10.93 7.13995ZM2.01 3.86995L4.69 6.54995C3.06 7.82995 1.77 9.52995 1 11.5C2.73 15.89 7 19 12 19C13.52 19 14.98 18.71 16.32 18.18L19.74 21.6L21.15 20.19L3.42 2.44995L2.01 3.86995ZM9.51 11.37L12.12 13.98C12.08 13.99 12.04 14 12 14C10.62 14 9.5 12.88 9.5 11.5C9.5 11.45 9.51 11.42 9.51 11.37ZM6.11 7.96995L7.86 9.71995C7.63 10.27 7.5 10.87 7.5 11.5C7.5 13.98 9.52 16 12 16C12.63 16 13.23 15.87 13.77 15.64L14.75 16.62C13.87 16.86 12.95 17 12 17C8.21 17 4.83 14.87 3.18 11.5C3.88 10.07 4.9 8.88995 6.11 7.96995Z"></path>
</symbol>
<symbol viewBox="0 0 24 24" id="link">
<path d="M14.3 15.7998C12.9 15.7998 11.5 15.1998 10.5 14.1998C9.10003 12.7998 8.60003 10.9998 9.00003 9.1998C9.00003 8.5998 9.50003 8.1998 10 8.3998C10.5 8.4998 10.9 8.9998 10.8 9.5998C10.6 10.6998 10.9 11.8998 11.7 12.6998C12.6 13.5998 13.8 13.8998 14.9 13.6998C15.5 13.5998 16.1 13.2998 16.5 12.8998C16.6 12.7998 16.6 12.7998 16.7 12.7998L19.6 9.8998C20.9 8.5998 20.9 6.3998 19.6 4.9998C18.2 3.5998 16 3.5998 14.6 4.8998L13.1 6.3998L13 6.4998C12.7 6.8998 12 6.9998 11.6 6.6998C11.2 6.3998 11.1 5.6998 11.4 5.2998C11.6 5.0998 11.7 4.9998 11.8 4.9998L13.3 3.4998C15.4 1.3998 18.9 1.3998 21 3.4998C23.2 5.6998 23.2 9.0998 21.1 11.2998L18.2 14.1998C18.1 14.2998 18 14.3998 17.9 14.4998C17.2 15.0998 16.4 15.4998 15.4 15.6998C15 15.6998 14.6 15.7998 14.3 15.7998Z"></path>
<path d="M7.90012 22.0999C6.50012 22.0999 5.10012 21.5999 4.00012 20.4999C1.80012 18.2999 1.80012 14.8999 3.90012 12.6999L6.80012 9.79986C7.00012 9.79986 7.00012 9.69986 7.10012 9.59986C7.80012 8.99986 8.60012 8.59986 9.60012 8.39986C11.4001 7.99986 13.2001 8.59986 14.6001 9.89986C16.0001 11.2999 16.5001 13.0999 16.1001 14.8999C16.0001 15.3999 15.5001 15.7999 14.9001 15.6999C14.4001 15.5999 14.0001 15.0999 14.1001 14.4999C14.3001 13.3999 14.0001 12.1999 13.2001 11.3999C12.3001 10.4999 11.1001 10.1999 10.0001 10.3999C9.40012 10.4999 8.80012 10.7999 8.40012 11.1999C8.30012 11.2999 8.30012 11.2999 8.20012 11.2999L5.30012 14.1999C4.00012 15.4999 4.00012 17.6999 5.30012 19.0999C6.70012 20.4999 8.90012 20.4999 10.3001 19.1999L11.8001 17.6999L11.9001 17.5999C12.2001 17.1999 12.9001 17.0999 13.3001 17.3999C13.7001 17.6999 13.8001 18.3999 13.5001 18.7999C13.4001 18.8999 13.3001 18.9999 13.2001 19.0999L11.7001 20.5999C10.7001 21.5999 9.30012 22.0999 7.90012 22.0999Z"></path>
</symbol>
<symbol viewBox="0 0 24 24" id="location">
<path d="M12 2C8.13 2 5 5.13 5 9C5 10.74 5.5 12.37 6.41 13.84C7.36 15.38 8.61 16.7 9.57 18.24C10.04 18.99 10.38 19.69 10.74 20.5C11 21.05 11.21 22 12 22C12.79 22 13 21.05 13.25 20.5C13.62 19.69 13.95 18.99 14.42 18.24C15.38 16.71 16.63 15.39 17.58 13.84C18.5 12.37 19 10.74 19 9C19 5.13 15.87 2 12 2ZM12 11.75C10.62 11.75 9.5 10.63 9.5 9.25C9.5 7.87 10.62 6.75 12 6.75C13.38 6.75 14.5 7.87 14.5 9.25C14.5 10.63 13.38 11.75 12 11.75Z"></path>
</symbol>
<symbol viewBox="0 0 24 24" id="mute">
<path d="M3.63 3.63002C3.24 4.02002 3.24 4.65002 3.63 5.04002L7.29 8.70002L7 9.00002H4C3.45 9.00002 3 9.45002 3 10V14C3 14.55 3.45 15 4 15H7L10.29 18.29C10.92 18.92 12 18.47 12 17.58V13.41L16.18 17.59C15.69 17.96 15.16 18.27 14.58 18.5C14.22 18.65 14 19.03 14 19.42C14 20.14 14.73 20.6 15.39 20.33C16.19 20 16.94 19.56 17.61 19.02L18.95 20.36C19.34 20.75 19.97 20.75 20.36 20.36C20.75 19.97 20.75 19.34 20.36 18.95L5.05 3.63002C4.66 3.24002 4.03 3.24002 3.63 3.63002ZM19 12C19 12.82 18.85 13.61 18.59 14.34L20.12 15.87C20.68 14.7 21 13.39 21 12C21 8.17002 18.6 4.89002 15.22 3.60002C14.63 3.37002 14 3.83002 14 4.46002V4.65002C14 5.03002 14.25 5.36002 14.61 5.50002C17.18 6.54002 19 9.06002 19 12ZM10.29 5.71002L10.12 5.88002L12 7.76002V6.41002C12 5.52002 10.92 5.08002 10.29 5.71002ZM16.5 12C16.5 10.23 15.48 8.71002 14 7.97002V9.76002L16.48 12.24C16.49 12.16 16.5 12.08 16.5 12Z"></path>
</symbol>
<symbol viewBox="0 0 24 24" id="pin">
<path d="M14 4V9C14 10.12 14.37 11.16 15 12H9C9.65 11.14 10 10.1 10 9V4H14ZM17 2H7C6.45 2 6 2.45 6 3C6 3.55 6.45 4 7 4H8V9C8 10.66 6.66 12 5 12V14H10.97V21L11.97 22L12.97 21V14H19V12C17.34 12 16 10.66 16 9V4H17C17.55 4 18 3.55 18 3C18 2.45 17.55 2 17 2Z"></path>
</symbol>
<symbol viewBox="0 0 25 24" id="reuse">
<path d="M21.0803 13.458C20.4529 13.458 20.0345 13.0397 20.0345 12.4122C20.0345 8.3336 16.7925 5.09161 12.7139 5.09161C10.7269 5.09161 8.94902 5.82367 7.4849 7.18321C7.17116 7.60153 6.43909 7.60153 6.02077 7.18321C5.60245 6.76489 5.60245 6.13741 6.02077 5.71909C7.79864 3.94122 10.204 3 12.7139 3C17.9429 3 22.1261 7.18321 22.1261 12.4122C22.1261 13.0397 21.7078 13.458 21.0803 13.458Z"></path>
<path d="M12.714 21.8245C7.48497 21.8245 3.30176 17.6413 3.30176 12.4123C3.30176 11.7848 3.72008 11.3665 4.34756 11.3665C4.97504 11.3665 5.39336 11.7848 5.39336 12.4123C5.39336 16.4909 8.63535 19.7329 12.714 19.7329C14.701 19.7329 16.4789 19.0008 17.943 17.6413C18.3613 17.223 18.9888 17.223 19.4071 17.6413C19.8254 18.0596 19.8254 18.6871 19.4071 19.1054C17.6293 20.8833 15.2239 21.8245 12.714 21.8245Z"></path>
<path d="M21.0797 13.4582C20.8705 13.4582 20.6614 13.3536 20.4522 13.249L16.8965 10.6345C16.4781 10.3208 16.3736 9.58871 16.6873 9.17039C17.001 8.75207 17.7331 8.64749 18.1514 8.96123L21.7072 11.5757C22.1255 11.8895 22.2301 12.6215 21.9163 13.0399C21.7072 13.3536 21.3934 13.4582 21.0797 13.4582Z"></path>
<path d="M21.0806 13.4581C20.8714 13.4581 20.6623 13.3535 20.4531 13.249C20.0348 12.9352 19.9302 12.2032 20.2439 11.7848L22.8585 8.22911C23.1722 7.81079 23.9043 7.70621 24.3226 8.01995C24.7409 8.33369 24.8455 9.06575 24.5317 9.48407L21.9172 13.0398C21.7081 13.3535 21.3943 13.4581 21.0806 13.4581Z"></path>
<path d="M7.90292 16.0727C7.69376 16.0727 7.4846 15.9681 7.27544 15.8635L3.71971 13.249C3.30139 12.9353 3.19681 12.2032 3.51055 11.7849C3.82429 11.3666 4.45177 11.262 4.97467 11.5757L8.5304 14.1902C8.94873 14.504 9.05331 15.236 8.73956 15.6544C8.5304 15.9681 8.21666 16.0727 7.90292 16.0727Z"></path>
<path d="M1.73293 17.0139C1.52377 17.0139 1.31461 16.9093 1.10545 16.8048C0.687129 16.491 0.582549 15.7589 0.89629 15.3406L3.5108 11.7849C3.82454 11.3666 4.45202 11.262 4.97492 11.5757C5.39324 11.8895 5.49783 12.6215 5.18408 13.0399L2.56958 16.5956C2.36041 16.9093 2.04667 17.0139 1.73293 17.0139Z"></path>
</symbol>
<symbol viewBox="0 0 24 24" id="share">
<path fill-rule="evenodd" clip-rule="evenodd" d="M18.6546 3.23047C17.4976 3.23047 16.5596 4.16846 16.5596 5.32554C16.5596 6.48262 17.4976 7.42061 18.6546 7.42061C19.8117 7.42061 20.7497 6.48262 20.7497 5.32554C20.7497 4.16846 19.8117 3.23047 18.6546 3.23047ZM14.0596 5.32554C14.0596 2.78775 16.1169 0.730469 18.6546 0.730469C21.1924 0.730469 23.2497 2.78775 23.2497 5.32554C23.2497 7.86333 21.1924 9.92061 18.6546 9.92061C16.1169 9.92061 14.0596 7.86333 14.0596 5.32554Z"></path>
<path fill-rule="evenodd" clip-rule="evenodd" d="M5.35191 9.89294C4.19483 9.89294 3.25684 10.8309 3.25684 11.988C3.25684 13.1451 4.19483 14.0831 5.35191 14.0831C6.50898 14.0831 7.44698 13.1451 7.44698 11.988C7.44698 10.8309 6.50898 9.89294 5.35191 9.89294ZM0.756836 11.988C0.756836 9.45023 2.81412 7.39294 5.35191 7.39294C7.88969 7.39294 9.94698 9.45023 9.94698 11.988C9.94698 14.5258 7.88969 16.5831 5.35191 16.5831C2.81412 16.5831 0.756836 14.5258 0.756836 11.988Z"></path>
<path fill-rule="evenodd" clip-rule="evenodd" d="M18.6546 16.6014C17.4976 16.6014 16.5596 17.5394 16.5596 18.6965C16.5596 19.8536 17.4976 20.7916 18.6546 20.7916C19.8117 20.7916 20.7497 19.8536 20.7497 18.6965C20.7497 17.5394 19.8117 16.6014 18.6546 16.6014ZM14.0596 18.6965C14.0596 16.1587 16.1169 14.1014 18.6546 14.1014C21.1924 14.1014 23.2497 16.1587 23.2497 18.6965C23.2497 21.2343 21.1924 23.2916 18.6546 23.2916C16.1169 23.2916 14.0596 21.2343 14.0596 18.6965Z"></path>
<path fill-rule="evenodd" clip-rule="evenodd" d="M15.9118 8.12741L8.16296 12.0018L7.04492 9.76575L14.7937 5.89134L15.9118 8.12741Z"></path>
<path fill-rule="evenodd" clip-rule="evenodd" d="M15.9123 18.3122L8.16341 14.3277L9.30664 12.1044L17.0555 16.0889L15.9123 18.3122Z"></path>
</symbol>
<symbol viewBox="0 0 24 24" id="show">
<path d="M12 6C15.79 6 19.17 8.13 20.82 11.5C19.17 14.87 15.79 17 12 17C8.21 17 4.83 14.87 3.18 11.5C4.83 8.13 8.21 6 12 6ZM12 4C7 4 2.73 7.11 1 11.5C2.73 15.89 7 19 12 19C17 19 21.27 15.89 23 11.5C21.27 7.11 17 4 12 4ZM12 9C13.38 9 14.5 10.12 14.5 11.5C14.5 12.88 13.38 14 12 14C10.62 14 9.5 12.88 9.5 11.5C9.5 10.12 10.62 9 12 9ZM12 7C9.52 7 7.5 9.02 7.5 11.5C7.5 13.98 9.52 16 12 16C14.48 16 16.5 13.98 16.5 11.5C16.5 9.02 14.48 7 12 7Z"></path>
</symbol>
<symbol viewBox="0 0 24 24" id="unfollow">
<path d="M11.9984 5.36327C13.3567 5.36327 14.4531 6.4597 14.4531 7.81797C14.4531 9.17624 13.3567 10.2727 11.9984 10.2727C10.6401 10.2727 9.54369 9.17624 9.54369 7.81797C9.54369 6.4597 10.6401 5.36327 11.9984 5.36327ZM11.9984 3.72681C9.74007 3.72681 7.90723 5.55965 7.90723 7.81797C7.90723 10.0763 9.74007 11.9091 11.9984 11.9091C14.2567 11.9091 16.0896 10.0763 16.0896 7.81797C16.0896 5.55965 14.2567 3.72681 11.9984 3.72681Z"></path>
<path d="M11.9996 15.1821C15.518 15.1821 19.1673 16.4422 19.3637 17.195V18.4551H4.63549V17.195C4.83187 16.4422 8.48118 15.1821 11.9996 15.1821ZM11.9996 13.5457C8.98849 13.5457 2.99902 14.6257 2.99902 17.195V20.0915H21.0001V17.195C21.0001 14.6257 15.0107 13.5457 11.9996 13.5457Z"></path>
<path d="M18 10.408V8.98413H23.5554V10.408H18Z"></path>
</symbol>
<symbol viewBox="0 0 24 24" id="unmute">
<path d="M3 9.99996V14C3 14.55 3.45 15 4 15H7L10.29 18.29C10.92 18.92 12 18.47 12 17.58V6.40996C12 5.51996 10.92 5.06996 10.29 5.69996L7 8.99996H4C3.45 8.99996 3 9.44996 3 9.99996ZM16.5 12C16.5 10.23 15.48 8.70996 14 7.96996V16.02C15.48 15.29 16.5 13.77 16.5 12ZM14 4.44996V4.64996C14 5.02996 14.25 5.35996 14.6 5.49996C17.18 6.52996 19 9.05996 19 12C19 14.94 17.18 17.47 14.6 18.5C14.24 18.64 14 18.97 14 19.35V19.55C14 20.18 14.63 20.62 15.21 20.4C18.6 19.11 21 15.84 21 12C21 8.15996 18.6 4.88996 15.21 3.59996C14.63 3.36996 14 3.81996 14 4.44996Z"></path>
</symbol>
<symbol viewBox="0 0 24 24" id="user">
<path d="M11.9984 5.36327C13.3567 5.36327 14.4531 6.4597 14.4531 7.81797C14.4531 9.17624 13.3567 10.2727 11.9984 10.2727C10.6401 10.2727 9.54369 9.17624 9.54369 7.81797C9.54369 6.4597 10.6401 5.36327 11.9984 5.36327ZM11.9984 3.72681C9.74007 3.72681 7.90723 5.55965 7.90723 7.81797C7.90723 10.0763 9.74007 11.9091 11.9984 11.9091C14.2567 11.9091 16.0896 10.0763 16.0896 7.81797C16.0896 5.55965 14.2567 3.72681 11.9984 3.72681Z"></path>
<path d="M11.9996 15.1821C15.518 15.1821 19.1673 16.4422 19.3637 17.195V18.4551H4.63549V17.195C4.83187 16.4422 8.48118 15.1821 11.9996 15.1821ZM11.9996 13.5457C8.98849 13.5457 2.99902 14.6257 2.99902 17.195V20.0915H21.0001V17.195C21.0001 14.6257 15.0107 13.5457 11.9996 13.5457Z"></path>
</symbol>
<symbol viewBox="0 0 24 24" id="votedown">
<path d="M15 3H6C5.17 3 4.46 3.5 4.16 4.22L1.14 11.27C1.05 11.5 1 11.74 1 12V14C1 15.1 1.9 16 3 16H9.31L8.36 20.57L8.33 20.89C8.33 21.3 8.5 21.68 8.77 21.95L9.83 23L16.41 16.41C16.78 16.05 17 15.55 17 15V5C17 3.9 16.1 3 15 3ZM15 15L10.66 19.34L11.77 14H3V12L6 5H15V15ZM19 3H23V15H19V3Z"></path>
</symbol>
<symbol viewBox="0 0 24 24" id="voteup">
<path d="M21 8H14.69L15.64 3.43L15.67 3.11C15.67 2.7 15.5 2.32 15.23 2.05L14.17 1L7.59 7.59C7.22 7.95 7 8.45 7 9V19C7 20.1 7.9 21 9 21H18C18.83 21 19.54 20.5 19.84 19.78L22.86 12.73C22.95 12.5 23 12.26 23 12V10C23 8.9 22.1 8 21 8ZM21 12L18 19H9V9L13.34 4.66L12.23 10H21V12ZM1 9H5V21H1V9Z"></path>
</symbol>
</defs>
</svg>
