<?xml version="1.0" encoding="UTF-8"?>
<!-- This file is generated by npm run build:icons -->
<svg xmlns="http://www.w3.org/2000/svg" xmlns:xlink="http://www.w3.org/1999/xlink" width="0" height="0">
<defs>
<symbol viewBox="0 0 24 24" id="account">
<path fill-rule="evenodd" clip-rule="evenodd" d="M16.9954 6.78311C16.8818 4.12231 14.6888 2 12 2C9.23858 2 7 4.23858 7 7V10C5.34315 10 4 11.3431 4 13V19C4 20.6569 5.34315 22 7 22H17C18.6569 22 20 20.6569 20 19V13C20 11.3431 18.6569 10 17 10V7L16.9954 6.78311ZM15 10V7C15 5.34315 13.6569 4 12 4C10.4023 4 9.09634 5.24892 9.00509 6.82373L9 7V10H15ZM8 12H16H17C17.5523 12 18 12.4477 18 13V19C18 19.5523 17.5523 20 17 20H7C6.44772 20 6 19.5523 6 19V13C6 12.4477 6.44772 12 7 12H8ZM12 14C10.8954 14 10 14.8954 10 16C10 17.1046 10.8954 18 12 18C13.1046 18 14 17.1046 14 16C14 14.8954 13.1046 14 12 14Z"></path>
</symbol>
<symbol viewBox="0 0 24 24" id="arrow">
<path fill-rule="evenodd" clip-rule="evenodd" d="M4.29897 12.717C3.90134 12.3274 3.90201 11.6898 4.29105 11.301V11.2911L10.2867 5.29957C10.6764 4.90014 11.3059 4.90014 11.7056 5.29957C12.0953 5.68902 12.0953 6.31813 11.7056 6.71756L7.40875 11.0115H19.0007C19.5503 11.0115 20 11.4509 20 12.0101C20 12.5593 19.5503 13.0086 19.0007 13.0086H7.42872L11.7145 17.2914C12.1042 17.6709 12.1042 18.31 11.7145 18.6994H11.7045C11.5146 18.8792 11.2548 18.989 10.995 18.989L11.006 19C10.7362 19 10.4764 18.8902 10.2965 18.7104L4.30088 12.7189C4.30024 12.7183 4.29961 12.7176 4.29897 12.717Z"></path>
</symbol>
<symbol viewBox="0 0 24 24" id="at">
<path fill-rule="evenodd" clip-rule="evenodd" d="M14.896 2.4166C10.6729 1.13886 6.11153 2.77981 3.67026 6.45502C1.22899 10.1302 1.48487 14.9711 4.29998 18.3685C7.11509 21.7658 11.8241 22.9168 15.8889 21.2009C16.3977 20.9862 16.6361 20.3996 16.4213 19.8908C16.2065 19.382 15.62 19.1436 15.1111 19.3584C11.8593 20.731 8.09208 19.8103 5.83999 17.0924C3.5879 14.3745 3.3832 10.5018 5.33621 7.56164C7.28923 4.62146 10.9384 3.3087 14.3168 4.3309C17.6953 5.3531 20.0046 8.46866 20 11.9984V13.4997L19.9932 13.6441C19.9205 14.4048 19.2797 14.9997 18.5 14.9997C17.6716 14.9997 17 14.3281 17 13.4997V11.9997C17 9.23823 14.7615 6.99965 12 6.99965C9.23861 6.99965 7.00003 9.23823 7.00003 11.9997C7.00003 14.7611 9.23861 16.9997 12 16.9997C13.4158 16.9997 14.6942 16.4112 15.6039 15.4655C16.2336 16.3915 17.2958 16.9997 18.5 16.9997C20.433 16.9997 22 15.4326 22 13.4997V11.9997L21.9963 11.7127C21.8796 7.42071 19.0273 3.66657 14.896 2.4166ZM15 11.9997C15 10.3428 13.6569 8.99965 12 8.99965C10.3432 8.99965 9.00003 10.3428 9.00003 11.9997C9.00003 13.6565 10.3432 14.9997 12 14.9997C13.6569 14.9997 15 13.6565 15 11.9997Z"></path>
</symbol>
<symbol viewBox="0 0 24 24" id="bell">
<path fill-rule="evenodd" clip-rule="evenodd" d="M12.0002 2C13.4204 2 14.61 2.9868 14.921 4.31213L14.9292 4.355C17.2399 5.65605 18.7617 8.02134 18.9816 10.7107L19.0002 11V13.931L19.0217 14.0674C19.1713 14.8732 19.6446 15.5831 20.3309 16.0312L20.4929 16.1298C21.3527 16.6167 21.0535 17.8964 20.1158 17.9941L20.0002 18H16.0002C16.0002 20.2091 14.2093 22 12.0002 22C9.858 22 8.10912 20.316 8.00509 18.1996L8.0002 18H4.0002C2.97267 18 2.61332 16.6362 3.50744 16.1298C4.28102 15.6918 4.81754 14.9351 4.9787 14.0674L5.0002 13.924L5.0013 10.9531C5.12658 8.28395 6.57311 5.87404 8.82264 4.50073L9.0702 4.355L9.07943 4.31213C9.3774 3.04202 10.4824 2.08282 11.8239 2.00509L12.0002 2ZM10.0002 18C10.0002 19.1046 10.8956 20 12.0002 20C13.0546 20 13.9184 19.1841 13.9947 18.1493L14.0002 18H10.0002ZM15.0002 16H9.0002H6.3692L6.51172 15.7345C6.75925 15.2337 6.9241 14.6889 6.99295 14.1202L7.0002 14V11L7.01661 10.7598C7.20175 8.68542 8.4961 6.81737 10.4352 5.9L10.5302 5.84809L10.6237 5.78214C10.7124 5.7115 10.787 5.62733 10.8458 5.53412L10.8986 5.43977C10.9474 5.34023 10.9801 5.23139 10.9935 5.11662L11.0069 4.88338C11.0647 4.38604 11.4874 4 12.0002 4C12.5525 4 13.0002 4.44772 13.0002 5L13.0083 5.12741C13.0513 5.46262 13.262 5.7571 13.5727 5.90403C15.5786 6.8525 16.8973 8.83053 17.0013 11.0469L17.0002 14L17.0074 14.1202L17.0436 14.3674C17.1422 14.9405 17.3388 15.4855 17.6193 15.9812L17.6302 16H15.0002Z"></path>
</symbol>
<symbol viewBox="0 0 24 24" id="block">
<path fill-rule="evenodd" clip-rule="evenodd" d="M22 12C22 17.5228 17.5228 22 12 22C6.47715 22 2 17.5228 2 12C2 6.47715 6.47715 2 12 2C17.5228 2 22 6.47715 22 12ZM16.9057 18.3198C15.551 19.3729 13.8487 20 12 20C7.58172 20 4 16.4183 4 12C4 10.1513 4.62709 8.44901 5.68017 7.09432L16.9057 18.3198ZM18.3199 16.9056L7.09439 5.68012C8.44907 4.62707 10.1513 4 12 4C16.4183 4 20 7.58172 20 12C20 13.8487 19.3729 15.5509 18.3199 16.9056Z"></path>
</symbol>
<symbol viewBox="0 0 24 24" id="bookmark">
<path fill-rule="evenodd" clip-rule="evenodd" d="M4 7C4 4.23858 6.23858 2 9 2H14.9999C17.7614 2 19.9999 4.23858 19.9999 7V18.9892C19.9999 21.5429 17.0126 22.9289 15.0627 21.2799L12.6457 19.2358C12.273 18.9205 11.727 18.9205 11.3542 19.2358L8.93724 21.2799C6.98734 22.9289 4 21.543 4 18.9892V7ZM9 4C7.34315 4 6 5.34315 6 7V18.9892C6 19.8405 6.99578 20.3025 7.64575 19.7528L10.0628 17.7087C11.1811 16.7629 12.8189 16.7629 13.9372 17.7087L16.3542 19.7528C17.0042 20.3024 17.9999 19.8405 17.9999 18.9892V7C17.9999 5.34315 16.6568 4 14.9999 4H9Z"></path>
</symbol>
<symbol viewBox="0 0 25 24" id="bookmarkFilled">
<path d="M19.334 0H6.00065C4.53398 0 3.34732 1.2 3.34732 2.66667L3.33398 24L12.6673 20L22.0006 24V2.66667C22.0006 1.2 20.8007 0 19.334 0Z"></path>
</symbol>
<symbol viewBox="0 0 36 36" id="camera">
<path fill-rule="evenodd" clip-rule="evenodd" d="M22.5 4.5C24.0815 4.5 25.3772 5.72382 25.4918 7.27611L25.5 7.5C25.5 8.26925 26.0791 8.90326 26.8251 8.98991L27 9H28.5C30.8965 9 32.8555 10.8734 32.9924 13.2356L33 13.5V27C33 29.3965 31.1266 31.3555 28.7644 31.4924L28.5 31.5H7.5C5.10348 31.5 3.14451 29.6266 3.00764 27.2644L3 27V13.5C3 11.1035 4.87338 9.14451 7.23559 9.00764L7.5 9H9C9.82843 9 10.5 8.32843 10.5 7.5C10.5 5.91846 11.7238 4.62275 13.2761 4.50823L13.5 4.5H22.5ZM22.5 7.5H13.5L13.4924 7.76441C13.3606 10.0391 11.5391 11.8606 9.26441 11.9924L9 12H7.5C6.73075 12 6.09674 12.5791 6.01009 13.3251L6 13.5V27C6 27.7693 6.57906 28.4033 7.32507 28.4899L7.5 28.5H28.5C29.2693 28.5 29.9033 27.9209 29.9899 27.1749L30 27V13.5C30 12.7307 29.4209 12.0967 28.6749 12.0101L28.5 12H27C24.5147 12 22.5 9.98528 22.5 7.5ZM18 13.5C14.6863 13.5 12 16.1863 12 19.5C12 22.8137 14.6863 25.5 18 25.5C21.3137 25.5 24 22.8137 24 19.5C24 16.1863 21.3137 13.5 18 13.5ZM18 16.5C19.6569 16.5 21 17.8431 21 19.5C21 21.1569 19.6569 22.5 18 22.5C16.3431 22.5 15 21.1569 15 19.5C15 17.8431 16.3431 16.5 18 16.5Z"></path>
</symbol>
<symbol viewBox="0 0 24 24" id="check">
<path fill-rule="evenodd" clip-rule="evenodd" d="M19.2929 6.29289C19.6834 5.90237 20.3166 5.90237 20.7071 6.29289C21.0676 6.65338 21.0953 7.22061 20.7903 7.6129L20.7071 7.70711L10.7071 17.7071C10.3466 18.0676 9.77939 18.0953 9.3871 17.7903L9.29289 17.7071L4.29289 12.7071C3.90237 12.3166 3.90237 11.6834 4.29289 11.2929C4.65338 10.9324 5.22061 10.9047 5.6129 11.2097L5.70711 11.2929L10 15.585L19.2929 6.29289Z"></path>
</symbol>
<symbol viewBox="0 0 36 36" id="close">
<path fill-rule="evenodd" clip-rule="evenodd" d="M9.91935 7.81456C9.33091 7.35702 8.48007 7.39861 7.93934 7.93934C7.35355 8.52513 7.35355 9.47487 7.93934 10.0607L15.8787 18L7.93934 25.9393L7.81456 26.0807C7.35702 26.6691 7.39861 27.5199 7.93934 28.0607C8.52513 28.6464 9.47487 28.6464 10.0607 28.0607L18 20.1213L25.9393 28.0607L26.0807 28.1854C26.6691 28.643 27.5199 28.6014 28.0607 28.0607C28.6464 27.4749 28.6464 26.5251 28.0607 25.9393L20.1213 18L28.0607 10.0607L28.1854 9.91935C28.643 9.33091 28.6014 8.48007 28.0607 7.93934C27.4749 7.35355 26.5251 7.35355 25.9393 7.93934L18 15.8787L10.0607 7.93934L9.91935 7.81456Z"></path>
</symbol>
<symbol viewBox="0 0 24 24" id="closeSmall">
<path fill-rule="evenodd" clip-rule="evenodd" d="M7.38249 6.17975C7.04624 5.9183 6.56004 5.94207 6.25105 6.25105C5.91632 6.58579 5.91632 7.1285 6.25105 7.46323L10.7878 12L6.25105 16.5368L6.17975 16.6175C5.9183 16.9538 5.94207 17.44 6.25105 17.7489C6.58579 18.0837 7.1285 18.0837 7.46323 17.7489L12 13.2122L16.5368 17.7489L16.6175 17.8203C16.9538 18.0817 17.44 18.0579 17.7489 17.7489C18.0837 17.4142 18.0837 16.8715 17.7489 16.5368L13.2122 12L17.7489 7.46323L17.8203 7.38249C18.0817 7.04624 18.0579 6.56004 17.7489 6.25105C17.4142 5.91632 16.8715 5.91632 16.5368 6.25105L12 10.7878L7.46323 6.25105L7.38249 6.17975Z"></path>
</symbol>
<symbol viewBox="0 0 24 24" id="comment">
<path fill-rule="evenodd" clip-rule="evenodd" d="M20.9951 7.80036C20.8911 5.68397 19.1422 4 17 4H7L6.80036 4.0049C4.68397 4.10892 3 5.8578 3 8L3.00173 21.059L3.00673 21.1166L3.0156 21.1764L3.02641 21.2293L3.0583 21.3373L3.08492 21.4039L3.10164 21.4398L3.15569 21.5361L3.2097 21.6129L3.29289 21.7071L3.37455 21.7803L3.46391 21.8443L3.59606 21.9151L3.66274 21.9417L3.77071 21.9736L3.82357 21.9844L3.88338 21.9933L3.94097 21.9983L4 22L4.05903 21.9983L4.11662 21.9933L4.17643 21.9844L4.22929 21.9736L4.33726 21.9417L4.40394 21.9151L4.43977 21.8984L4.53609 21.8443L4.6129 21.7903L4.70711 21.7071L8.414 18H17L17.1996 17.9951C19.316 17.8911 21 16.1422 21 14V8L20.9951 7.80036ZM7 6H17L17.1493 6.00549C18.1841 6.08183 19 6.94564 19 8V14L18.9945 14.1493C18.9182 15.1841 18.0544 16 17 16H8L7.86856 16.0087C7.65185 16.0374 7.44917 16.1366 7.29289 16.2929L5 18.584V8L5.00549 7.85074C5.08183 6.81588 5.94564 6 7 6ZM16 8C16.5523 8 17 8.44772 17 9C17 9.51284 16.614 9.93551 16.1166 9.99327L16 10H8C7.44772 10 7 9.55228 7 9C7 8.48716 7.38604 8.06449 7.88338 8.00673L8 8H16ZM15 13C15 12.4477 14.5523 12 14 12H8L7.88338 12.0067C7.38604 12.0645 7 12.4872 7 13C7 13.5523 7.44772 14 8 14H14L14.1166 13.9933C14.614 13.9355 15 13.5128 15 13Z"></path>
</symbol>
<symbol viewBox="0 0 24 24" id="commentFilled">
<g clip-path="url(#clip0_954_7606)">
<path d="M12 24C11.7 24 11.5 23.9 11.3 23.7L7.3 19.7C6.9 19.3 6.9 18.7 7.3 18.3C7.7 17.9 8.3 17.9 8.7 18.3H12H15.3C15.7 17.9 16.3 17.9 16.7 18.3C17.1 18.7 17.1 19.3 16.7 19.7L12.7 23.7C12.5 23.9 12.3 24 12 24Z"></path>
<path fill-rule="evenodd" clip-rule="evenodd" d="M3 -0.00012207C1.34315 -0.00012207 0 1.34302 0 2.99987V16.909C0 18.5658 1.34315 19.909 3 19.909H21C22.6569 19.909 24 18.5658 24 16.909V2.99988C24 1.34302 22.6569 -0.00012207 21 -0.00012207H3ZM6.00001 6.99978H18C18.6 6.99978 19 6.59978 19 5.99978C19 5.39978 18.6 4.99978 18 4.99978H6.00001C5.40001 4.99978 5.00001 5.39978 5.00001 5.99978C5.00001 6.59978 5.40001 6.99978 6.00001 6.99978ZM13 10.9999H6.00001C5.40001 10.9999 5.00001 10.5999 5.00001 9.99987C5.00001 9.39987 5.40001 8.99987 6.00001 8.99987H13C13.6 8.99987 14 9.39987 14 9.99987C14 10.5999 13.6 10.9999 13 10.9999ZM6.00001 15H16C16.6 15 17 14.6 17 14C17 13.4 16.6 13 16 13H6.00001C5.40001 13 5.00001 13.4 5.00001 14C5.00001 14.6 5.40001 15 6.00001 15Z"></path>
</g>
<defs>
<clipPath id="clip0_954_7606">
<rect width="24" height="24" fill="white"></rect>
</clipPath>
</defs>
</symbol>
<symbol viewBox="0 0 24 24" id="dots">
<path fill-rule="evenodd" clip-rule="evenodd" d="M5 10C3.89543 10 3 10.8954 3 12C3 13.1046 3.89543 14 5 14C6.10457 14 7 13.1046 7 12C7 10.8954 6.10457 10 5 10ZM12 10C10.8954 10 10 10.8954 10 12C10 13.1046 10.8954 14 12 14C13.1046 14 14 13.1046 14 12C14 10.8954 13.1046 10 12 10ZM17 12C17 10.8954 17.8954 10 19 10C20.1046 10 21 10.8954 21 12C21 13.1046 20.1046 14 19 14C17.8954 14 17 13.1046 17 12Z"></path>
</symbol>
<symbol viewBox="0 0 24 24" id="flag">
<path fill-rule="evenodd" clip-rule="evenodd" d="M19 4C19.8522 4 20.2974 4.98551 19.7832 5.62253L19.7071 5.70711L15.915 9.5L19.7071 13.2929C20.3097 13.8955 19.9277 14.9072 19.1136 14.994L19 15H6V21C6 21.5128 5.61396 21.9355 5.11662 21.9933L5 22C4.48716 22 4.06449 21.614 4.00673 21.1166L4 21V5C4 4.48716 4.38604 4.06449 4.88338 4.00673L5 4H19ZM16.584 6H6V13H16.585L13.7929 10.2071C13.4324 9.84662 13.4047 9.27939 13.7097 8.8871L13.7929 8.79289L16.584 6Z"></path>
</symbol>
<symbol viewBox="0 0 24 24" id="follow">
<path fill-rule="evenodd" clip-rule="evenodd" d="M4 7C4 4.23858 6.23858 2 9 2C11.7614 2 14 4.23858 14 7C14 9.76142 11.7614 12 9 12C6.23858 12 4 9.76142 4 7ZM12 7C12 5.34315 10.6569 4 9 4C7.34315 4 6 5.34315 6 7C6 8.65685 7.34315 10 9 10C10.6569 10 12 8.65685 12 7ZM11 14C13.6888 14 15.8818 16.1223 15.9954 18.7831L16 19V21C16 21.5523 15.5523 22 15 22C14.4872 22 14.0645 21.614 14.0067 21.1166L14 21V19C14 17.4023 12.7511 16.0963 11.1763 16.0051L11 16H7C5.40232 16 4.09634 17.2489 4.00509 18.8237L4 19V21C4 21.5523 3.55228 22 3 22C2.48716 22 2.06449 21.614 2.00673 21.1166L2 21V19C2 16.3112 4.12231 14.1182 6.78311 14.0046L7 14H11ZM19.9933 7.88338C19.9355 7.38604 19.5128 7 19 7C18.4477 7 18 7.44772 18 8V10H16L15.8834 10.0067C15.386 10.0645 15 10.4872 15 11C15 11.5523 15.4477 12 16 12H18V14L18.0067 14.1166C18.0645 14.614 18.4872 15 19 15C19.5523 15 20 14.5523 20 14V12H22L22.1166 11.9933C22.614 11.9355 23 11.5128 23 11C23 10.4477 22.5523 10 22 10H20V8L19.9933 7.88338Z"></path>
</symbol>
<symbol viewBox="0 0 24 24" id="heart">
<path fill-rule="evenodd" clip-rule="evenodd" d="M12 7.21187L10.6662 6.01806C9.95717 5.38348 9.02575 5 8 5C5.79086 5 4 6.79086 4 9C4 11.9996 5.33975 14.212 7.03224 15.8501C8.75438 17.5169 10.7798 18.5183 11.8857 18.9794C11.9626 19.0114 12.0374 19.0114 12.1143 18.9794C13.2202 18.5183 15.2456 17.5169 16.9678 15.8501C18.6602 14.2119 20 11.9996 20 9.00004C20 6.7909 18.2091 5 16 5C14.9742 5 14.0428 5.38348 13.3338 6.01806L12 7.21187ZM12 4.52779C10.9385 3.57771 9.53671 3 8 3C4.68629 3 2 5.68629 2 9C2 16.3511 8.67146 19.8061 11.116 20.8254C11.6855 21.0628 12.3145 21.0628 12.884 20.8254C15.3285 19.8061 22 16.3512 22 9.00005C22 5.68634 19.3137 3 16 3C14.4633 3 13.0615 3.57771 12 4.52779Z"></path>
</symbol>
<symbol viewBox="0 0 25 24" id="heartFilled">
<g clip-path="url(#clip0_954_7571)">
<path d="M22.4651 3.86785C21.2283 2.63102 19.5625 2 17.9218 2C16.2812 2 14.6405 2.63102 13.3785 3.86785L12.3184 4.92795L11.2583 3.86785C10.0214 2.63102 8.35569 2 6.71496 2C5.02384 2 3.33276 2.65621 2.07069 3.99392C-0.352499 6.54317 -0.200876 10.5817 2.27264 13.0553L11.5359 22.3186C11.965 22.7477 12.6466 22.7477 13.0505 22.3186L22.4147 12.9543C24.964 10.4558 24.964 6.36698 22.4651 3.86816L22.4651 3.86785Z"></path>
</g>
<defs>
<clipPath id="clip0_954_7571">
<rect width="24" height="24" fill="white" transform="translate(0.333008)"></rect>
</clipPath>
</defs>
</symbol>
<symbol viewBox="0 0 24 24" id="hide">
<path fill-rule="evenodd" clip-rule="evenodd" d="M2.29289 2.29289C2.65338 1.93241 3.22061 1.90468 3.6129 2.2097L3.70711 2.29289L17.9832 16.569C18.0385 16.6134 18.0897 16.6643 18.1356 16.7214L21.7071 20.2929C22.0976 20.6834 22.0976 21.3166 21.7071 21.7071C21.3466 22.0676 20.7794 22.0953 20.3871 21.7903L20.2929 21.7071L17.206 18.6203C15.6021 19.5382 13.8623 20 12 20C7.6044 20 3.96348 17.4514 1.13177 12.4962C0.956057 12.1887 0.956079 11.8112 1.13182 11.5037C2.32272 9.42032 3.65271 7.76402 5.12709 6.5413L2.29289 3.70711C1.90237 3.31658 1.90237 2.68342 2.29289 2.29289ZM6.54861 7.96282C5.40937 8.87487 4.34586 10.11 3.3617 11.6732L3.161 12L3.27859 12.1941C5.63002 15.9935 8.42551 17.8901 11.709 17.9954L12 18C13.326 18 14.5644 17.7155 15.7281 17.1423L13.2947 14.7089C12.1786 15.2434 10.8005 15.0479 9.8761 14.1229C8.95222 13.1984 8.75747 11.8212 9.29159 10.7058L6.54861 7.96282ZM11.2385 12.6527L11.3478 12.762C11.3283 12.7453 11.3093 12.7277 11.2908 12.7092C11.2725 12.6909 11.2551 12.672 11.2385 12.6527ZM11.9996 3.99994C16.3951 3.99994 20.0361 6.54859 22.8678 11.5038C23.0435 11.8113 23.0435 12.1888 22.8677 12.4963C22.0529 13.9217 21.1749 15.1455 20.2309 16.1668C19.8561 16.5723 19.2234 16.5972 18.8178 16.2224C18.4122 15.8475 18.3873 15.2148 18.7622 14.8092C19.4125 14.1056 20.0351 13.283 20.6292 12.3407L20.8386 12L20.721 11.8059C18.3695 8.00649 15.5739 6.10986 12.2873 6.00458L11.9961 5.99993C11.1984 5.99716 10.4044 6.10708 9.6376 6.32643C9.10661 6.47833 8.55302 6.17102 8.40113 5.64003C8.24923 5.10905 8.55654 4.55546 9.08753 4.40357C10.0355 4.1324 11.017 3.99652 11.9996 3.99994Z"></path>
</symbol>
<symbol viewBox="0 0 24 24" id="invite">
<path fill-rule="evenodd" clip-rule="evenodd" d="M19.0001 4H5.00011C3.34965 4 2.01048 5.3328 2.00017 6.98083C1.99997 6.99179 1.99995 7.00273 2.00011 7.01367V17C2.00011 18.6569 3.34325 20 5.00011 20H19.0001C20.657 20 22.0001 18.6569 22.0001 17V7.01366C22.0003 7.00273 22.0002 6.99179 22 6.98085C21.9897 5.33281 20.6506 4 19.0001 4ZM19.888 6.53948C19.7214 6.21894 19.3863 6 19.0001 6H5.00011C4.61389 6 4.27881 6.21894 4.11222 6.53948L12.0001 11.797L19.888 6.53948ZM4.00011 8.86852V17C4.00011 17.5523 4.44782 18 5.00011 18H19.0001C19.5524 18 20.0001 17.5523 20.0001 17V8.86852L12.5548 13.8321C12.2562 14.0311 11.8773 14.0532 11.5609 13.8984L11.4454 13.8321L4.00011 8.86852Z"></path>
</symbol>
<symbol viewBox="0 0 24 24" id="link">
<path fill-rule="evenodd" clip-rule="evenodd" d="M19.707 4.29327C17.9358 2.52203 15.064 2.52203 13.2928 4.29327L12.7928 4.79327L12.7096 4.88748C12.4046 5.27977 12.4323 5.847 12.7928 6.20748C13.1833 6.59801 13.8165 6.59801 14.207 6.20748L14.707 5.70748L14.8395 5.58395C15.8356 4.71917 17.3456 4.76035 18.2928 5.70748C19.283 6.69767 19.283 8.30308 18.2928 9.29327L14.2928 13.2933L14.1447 13.4329C13.6864 13.8318 13.1046 14.0509 12.4999 14.0509C11.828 14.0509 11.1844 13.7804 10.7142 13.3005C10.3277 12.906 9.69452 12.8996 9.30003 13.2861C8.90555 13.6726 8.89908 14.3057 9.2856 14.7002C10.132 15.5641 11.2905 16.0509 12.4999 16.0509C13.7093 16.0509 14.8678 15.5641 15.7142 14.7002L19.707 10.7075L19.8679 10.5383C21.4765 8.75784 21.4229 6.00916 19.707 4.29327ZM14.7142 9.30052C13.8678 8.43667 12.7093 7.94987 11.4999 7.94987C10.2905 7.94987 9.132 8.43667 8.2856 9.30052L4.29278 13.2933L4.13192 13.4625C2.52328 15.2429 2.5769 17.9916 4.29278 19.7075C6.06402 21.4787 8.93576 21.4787 10.707 19.7075L11.207 19.2075L11.2902 19.1133C11.5952 18.721 11.5675 18.1538 11.207 17.7933C10.8165 17.4027 10.1833 17.4027 9.79278 17.7933L9.29278 18.2933L9.16024 18.4168C8.16416 19.2816 6.65413 19.2404 5.707 18.2933C4.71681 17.3031 4.71681 15.6977 5.707 14.7075L9.707 10.7075L9.85506 10.5679C10.3134 10.1689 10.8952 9.94987 11.4999 9.94987C12.1718 9.94987 12.8154 10.2203 13.2856 10.7002C13.6721 11.0947 14.3053 11.1012 14.6997 10.7147C15.0942 10.3281 15.1007 9.69501 14.7142 9.30052Z"></path>
</symbol>
<symbol viewBox="0 0 24 24" id="location">
<path fill-rule="evenodd" clip-rule="evenodd" d="M5.63609 4.63598C2.12139 8.15063 2.12129 13.849 5.63587 17.3638L9.87998 21.6069C11.0516 22.7773 12.9494 22.7773 14.1208 21.6072L18.3641 17.3638C21.8787 13.849 21.8786 8.15063 18.3639 4.63598C14.8492 1.12134 9.1508 1.12134 5.63609 4.63598ZM16.9497 6.05021C19.6834 8.78382 19.6834 13.2159 16.9499 15.9496L12.7069 20.1926C12.3168 20.5823 11.6842 20.5823 11.2937 20.1922L7.05002 15.9495C4.31656 13.2159 4.31664 8.78382 7.05029 6.05021C9.78396 3.3166 14.216 3.3166 16.9497 6.05021ZM12 6.99971C9.79086 6.99971 8 8.79057 8 10.9997C8 13.2088 9.79086 14.9997 12 14.9997C14.2091 14.9997 16 13.2088 16 10.9997C16 8.79057 14.2091 6.99971 12 6.99971ZM12 8.99971C13.1046 8.99971 14 9.89514 14 10.9997C14 12.1043 13.1046 12.9997 12 12.9997C10.8954 12.9997 10 12.1043 10 10.9997C10 9.89514 10.8954 8.99971 12 8.99971Z"></path>
</symbol>
<symbol viewBox="0 0 24 24" id="logout">
<path fill-rule="evenodd" clip-rule="evenodd" d="M14.9949 5.82373C14.9037 4.24892 13.5977 3 12 3H5L4.82373 3.00509C3.24892 3.09634 2 4.40232 2 6V18L2.00509 18.1763C2.09634 19.7511 3.40232 21 5 21H12L12.1763 20.9949C13.7511 20.9037 15 19.5977 15 18V16L14.9933 15.8834C14.9355 15.386 14.5128 15 14 15C13.4477 15 13 15.4477 13 16V18L12.9933 18.1166C12.9355 18.614 12.5128 19 12 19H5L4.88338 18.9933C4.38604 18.9355 4 18.5128 4 18V6L4.00673 5.88338C4.06449 5.38604 4.48716 5 5 5H12L12.1166 5.00673C12.614 5.06449 13 5.48716 13 6V8L13.0067 8.11662C13.0645 8.61396 13.4872 9 14 9C14.5523 9 15 8.55228 15 8V6L14.9949 5.82373ZM18.7071 8.29289L18.6129 8.2097L18.5114 8.14038C18.1275 7.91161 17.6233 7.96245 17.2929 8.29289L17.2097 8.3871C16.9047 8.77939 16.9324 9.34662 17.2929 9.70711L18.585 11H7L6.88338 11.0067C6.38604 11.0645 6 11.4872 6 12C6 12.5523 6.44772 13 7 13H18.584L17.2929 14.2929L17.2097 14.3871C16.9047 14.7794 16.9324 15.3466 17.2929 15.7071C17.6834 16.0976 18.3166 16.0976 18.7071 15.7071L21.6663 12.7489C21.7702 12.6552 21.8527 12.5407 21.9101 12.4151L21.9506 12.3111L21.9871 12.1651C22.0387 11.8678 21.9589 11.5446 21.7071 11.2929L18.7071 8.29289Z"></path>
</symbol>
<symbol viewBox="0 0 24 24" id="megaphone">
<path d="M19 11.5C19 10.6716 19.6716 10 20.5 10C21.3284 10 22 10.6716 22 11.5C22 12.3284 21.3284 13 20.5 13C19.6716 13 19 12.3284 19 11.5Z"></path>
<path fill-rule="evenodd" clip-rule="evenodd" d="M5.98069 13.8037L6.71565 17.4785C6.77628 17.7816 7.04244 17.9998 7.35158 17.9998C7.70976 17.9998 8.00011 17.7095 8.00011 17.3513V13.9998H10.0001V17.3513C10.0001 18.814 8.81432 19.9998 7.35158 19.9998C6.08908 19.9998 5.00208 19.1087 4.75449 17.8707L4.01953 14.1959L5.98069 13.8037Z"></path>
<path fill-rule="evenodd" clip-rule="evenodd" d="M21 7.50919C21 4.80596 18.0659 3.12317 15.7327 4.48818L11.8344 6.76876C10.4556 7.57534 8.88709 8.00045 7.28976 8.00045H5.5C3.567 8.00045 2 9.56746 2 11.5005C2 13.4334 3.567 15.0005 5.5 15.0005H7.28569C8.88534 15.0005 10.4561 15.4268 11.8362 16.2356L15.7304 18.5177C18.0636 19.8851 21 18.2025 21 15.4981V7.50919ZM16.7426 6.21447C17.7425 5.62947 19 6.35067 19 7.50919V15.4981C19 16.6571 17.7415 17.3782 16.7416 16.7922L12.8474 14.5101C12.2573 14.1643 11.6387 13.8756 11 13.6465V9.35585C11.6375 9.12743 12.2551 8.83974 12.8443 8.49504L16.7426 6.21447ZM9 9.86669C8.43632 9.95541 7.86457 10.0005 7.28976 10.0005H5.5C4.67157 10.0005 4 10.672 4 11.5005C4 12.3289 4.67157 13.0005 5.5 13.0005H7.28569C7.86188 13.0005 8.435 13.0457 9 13.1349V9.86669Z"></path>
</symbol>
<symbol viewBox="0 0 24 24" id="mute">
<path fill-rule="evenodd" clip-rule="evenodd" d="M8.68784 3.90781C9.12534 3.21162 9.98786 2.89483 10.7805 3.15904C11.5731 3.42325 12.073 4.19419 12.0053 5.01364L12 5.05248V18.9445L12.0053 18.9873C12.0688 19.7556 11.6334 20.4812 10.9256 20.7866L10.7805 20.8419C9.98786 21.1061 9.12534 20.7893 8.68784 20.0931L8.669 20.0605L5.511 16.0005H4C2.94564 16.0005 2.08183 15.1846 2.00549 14.1497L2 14.0005V10.0005C2 8.94612 2.81588 8.08231 3.85074 8.00597L4 8.00048H5.51L8.669 3.93948L8.68784 3.90781ZM10 5.48548L6.78935 9.61442C6.62696 9.82321 6.38974 9.95771 6.13095 9.99188L6 10.0005H4V14.0005H6L6.11662 14.0072L6.18239 14.0172L6.22929 14.0269L6.33726 14.0588L6.40825 14.0874L6.53609 14.1562L6.621 14.2165L6.70655 14.2929L6.78935 14.3865L10 18.5145V5.48548ZM16.7071 9.29337L16.6129 9.21018L16.5114 9.14086C16.1275 8.91209 15.6233 8.96293 15.2929 9.29337C14.9024 9.6839 14.9024 10.3171 15.2929 10.7076L16.585 12.0005L15.2929 13.2934L15.2097 13.3876C14.9047 13.7799 14.9324 14.3471 15.2929 14.7076C15.6834 15.0981 16.3166 15.0981 16.7071 14.7076L18 13.4155L19.2929 14.7076L19.3871 14.7908C19.7794 15.0958 20.3466 15.0681 20.7071 14.7076C21.0976 14.3171 21.0976 13.6839 20.7071 13.2934L19.415 12.0005L20.7071 10.7076L20.7903 10.6134C21.0953 10.2211 21.0676 9.65386 20.7071 9.29337C20.3166 8.90285 19.6834 8.90285 19.2929 9.29337L18 10.5855L16.7071 9.29337Z"></path>
</symbol>
<symbol viewBox="0 0 24 24" id="pencil">
<path fill-rule="evenodd" clip-rule="evenodd" d="M13.7929 4.7932C15.288 3.2981 17.712 3.2981 19.2071 4.7932C20.6506 6.23673 20.7004 8.54625 19.3564 10.0495L19.2071 10.2074L18.2071 11.2074L8.70711 20.7074C8.55083 20.8637 8.34815 20.9629 8.13144 20.9916L8 21.0003H4C3.48716 21.0003 3.06449 20.6143 3.00673 20.1169L3 20.0003V16.0003C3 15.7793 3.07316 15.5658 3.20608 15.3923L3.29289 15.2932L12.7927 5.79334C12.7928 5.79329 12.7928 5.79324 12.7929 5.7932C12.7929 5.79315 12.793 5.7931 12.793 5.79305L13.7929 4.7932ZM13.5 7.9145L5 16.4143V18.9993H7.585L16.0856 10.5002L13.5 7.9145ZM17.5 9.08606L14.9142 6.5003L15.2071 6.20741L15.3301 6.09501C16.0484 5.49557 17.1185 5.53303 17.7929 6.20741L17.9053 6.33037C18.5047 7.04872 18.4673 8.11882 17.7929 8.7932L17.5 9.08606Z"></path>
</symbol>
<symbol viewBox="0 0 24 24" id="pending">
<path fill-rule="evenodd" clip-rule="evenodd" d="M4 5C4 3.34315 5.34315 2 7 2H17C18.6569 2 20 3.34315 20 5V5.97076C20 6.93962 19.5321 7.84883 18.7437 8.41196L13.7205 12L18.7437 15.588C19.5321 16.1512 20 17.0604 20 18.0292V19C20 20.6569 18.6569 22 17 22H7C5.34315 22 4 20.6569 4 19V18.0292C4 17.0604 4.4679 16.1512 5.25629 15.588L10.2795 12L5.25629 8.41196C4.4679 7.84883 4 6.93962 4 5.97076V5ZM12 10.7711L17.5812 6.7845C17.844 6.59679 18 6.29372 18 5.97076V5C18 4.44772 17.5523 4 17 4H7C6.44772 4 6 4.44772 6 5V5.97076C6 6.29372 6.15597 6.59679 6.41876 6.7845L12 10.7711ZM12 13.2289L6.41876 17.2155C6.15597 17.4032 6 17.7063 6 18.0292V19C6 19.5523 6.44772 20 7 20H17C17.5523 20 18 19.5523 18 19V18.0292C18 17.7063 17.844 17.4032 17.5812 17.2155L12 13.2289Z"></path>
<path d="M16 19.9996H8V19.5769C8 19.2197 8.19054 18.8896 8.49987 18.7109L10.9997 17.2671C11.6187 16.9097 12.3813 16.9097 13.0003 17.2671L15.5001 18.7109C15.8095 18.8896 16 19.2197 16 19.5769V19.9996Z"></path>
</symbol>
<symbol viewBox="0 0 25 24" id="pin">
<path fill-rule="evenodd" clip-rule="evenodd" d="M16.5 5L16.6166 4.99327C17.114 4.93551 17.5 4.51284 17.5 4C17.5 3.44772 17.0523 3 16.5 3H15.5H9.5H8.5L8.38338 3.00673C7.88604 3.06449 7.5 3.48716 7.5 4C7.5 4.55228 7.94772 5 8.5 5V9.762L6.60557 13.5528L6.55979 13.6594C6.52033 13.7683 6.5 13.8836 6.5 14V16L6.50673 16.1166C6.56449 16.614 6.98716 17 7.5 17H11.5V21L11.5067 21.1166C11.5645 21.614 11.9872 22 12.5 22C13.0523 22 13.5 21.5523 13.5 21V17H17.5L17.6166 16.9933C18.114 16.9355 18.5 16.5128 18.5 16V14L18.4933 13.8842C18.4798 13.7691 18.4465 13.6569 18.3944 13.5528L16.5 9.764V5ZM14.5 5H10.5V10C10.5 10.1164 10.4797 10.2317 10.4402 10.3406L10.3944 10.4472L8.5 14.235V15H12.5H16.5V14.237L14.6056 10.4472C14.5535 10.3431 14.5202 10.2309 14.5067 10.1158L14.5 10V5Z"></path>
</symbol>
<symbol viewBox="0 0 24 24" id="reuse">
<path fill-rule="evenodd" clip-rule="evenodd" d="M20.9906 10.8625C20.4258 6.79842 17.2111 3.61498 13.1418 3.0899C10.0031 2.68492 6.95488 3.93858 5.00072 6.27103L5.00012 5.00013L4.99339 4.88351C4.93563 4.38617 4.51296 4.00013 4.00012 4.00013C3.44784 4.00013 3.00012 4.44784 3.00012 5.00013V9.00013L3.00685 9.11675C3.06462 9.61409 3.48729 10.0001 4.00012 10.0001H8.00012L8.11674 9.9934C8.61408 9.93563 9.00012 9.51296 9.00012 9.00013L8.99339 8.88351C8.93563 8.38617 8.51296 8.00013 8.00012 8.00013L6.19018 8.00066C7.68467 5.89764 10.2442 4.7326 12.8858 5.07346C16.0608 5.48314 18.569 7.96691 19.0096 11.1378C19.0857 11.6848 19.5907 12.0666 20.1378 11.9906C20.6848 11.9146 21.0666 11.4095 20.9906 10.8625ZM11.1144 18.9268C7.93941 18.5171 5.43126 16.0333 4.9906 12.8625C4.91458 12.3155 4.4095 11.9336 3.86247 12.0096C3.31545 12.0857 2.93362 12.5907 3.00964 13.1378C3.57443 17.2018 6.7891 20.3853 10.8585 20.9104C13.9976 21.3154 17.0462 20.0613 19.0004 17.7282L19.0001 19.0001L19.0069 19.1167C19.0646 19.6141 19.4873 20.0001 20.0001 20.0001C20.5524 20.0001 21.0001 19.5524 21.0001 19.0001V15.0001L20.9934 14.8835C20.9356 14.3862 20.513 14.0001 20.0001 14.0001H16.0001L15.8835 14.0069C15.3862 14.0646 15.0001 14.4873 15.0001 15.0001L15.0069 15.1167C15.0646 15.6141 15.4873 16.0001 16.0001 16.0001L17.8093 16.0006C16.3148 18.103 13.7556 19.2676 11.1144 18.9268Z"></path>
</symbol>
<symbol viewBox="0 0 24 24" id="search">
<path fill-rule="evenodd" clip-rule="evenodd" d="M10 2C5.58172 2 2 5.58172 2 10C2 14.4183 5.58172 18 10 18C11.8487 18 13.551 17.3729 14.9056 16.3199L20.2929 21.7071L20.3871 21.7903C20.7794 22.0953 21.3466 22.0676 21.7071 21.7071C22.0976 21.3166 22.0976 20.6834 21.7071 20.2929L16.3199 14.9056C17.3729 13.551 18 11.8487 18 10C18 5.58172 14.4183 2 10 2ZM10 4C13.3137 4 16 6.68629 16 10C16 13.3137 13.3137 16 10 16C6.68629 16 4 13.3137 4 10C4 6.68629 6.68629 4 10 4Z"></path>
</symbol>
<symbol viewBox="0 0 24 24" id="settings">
<path fill-rule="evenodd" clip-rule="evenodd" d="M9.35315 4.08124C9.23706 4.55865 8.69389 4.78376 8.27248 4.52754C5.83391 3.04292 3.04354 5.83396 4.52896 8.27226C4.64951 8.46998 4.66835 8.713 4.57986 8.9266C4.49137 9.14019 4.30618 9.29868 4.08148 9.35312C1.30622 10.0264 1.30622 13.9736 4.08121 14.6468C4.30516 14.7013 4.49012 14.8597 4.57851 15.0732C4.6669 15.2867 4.64811 15.5295 4.52792 15.7268C3.04288 18.1661 5.83393 20.9564 8.27223 19.471C8.46995 19.3505 8.71296 19.3316 8.92656 19.4201C9.14016 19.5086 9.29864 19.6938 9.35309 19.9185C10.0264 22.6937 13.9736 22.6937 14.6468 19.9188C14.7012 19.6948 14.8597 19.5098 15.0732 19.4215C15.2866 19.3331 15.5295 19.3519 15.7268 19.472C18.166 20.9571 20.9564 18.166 19.471 15.7277C19.3504 15.53 19.3316 15.287 19.4201 15.0734C19.5086 14.8598 19.6937 14.7013 19.9184 14.6469C22.6937 13.9736 22.6937 10.0264 19.9187 9.35319C19.6948 9.29873 19.5098 9.14027 19.4214 8.92681C19.333 8.71334 19.3518 8.47051 19.472 8.2732C20.9571 5.83394 18.166 3.04357 15.7277 4.52899C15.53 4.64955 15.287 4.66839 15.0734 4.5799C14.8598 4.4914 14.7013 4.30622 14.6468 4.08124C13.9736 1.30625 10.0264 1.30625 9.35315 4.08124ZM12.7031 4.55248C12.9079 5.3979 13.5042 6.09465 14.3079 6.4276C15.1115 6.76055 16.0258 6.68966 16.7685 6.23681C17.3881 5.85937 18.0943 6.52202 17.809 7.14796L17.7638 7.23298C17.3117 7.97519 17.241 8.88882 17.5736 9.69195C17.9061 10.4951 18.602 11.0913 19.4467 11.2967C20.1842 11.4756 20.1842 12.5244 19.4472 12.7032C18.6021 12.908 17.9053 13.5043 17.5724 14.3079C17.2394 15.1115 17.3103 16.0259 17.7632 16.7686C18.1406 17.3882 17.4779 18.0943 16.852 17.809L16.767 17.7638C16.0248 17.3118 15.1111 17.241 14.308 17.5736C13.5049 17.9062 12.9087 18.6021 12.7033 19.4467C12.5244 20.1843 11.4756 20.1843 11.2968 19.4472C11.092 18.6021 10.4957 17.9054 9.69207 17.5724C8.88843 17.2395 7.9741 17.3103 7.23138 17.7632C6.61181 18.1406 5.90564 17.478 6.19097 16.852L6.23612 16.767C6.6882 16.0248 6.75892 15.1112 6.42636 14.308C6.0938 13.5049 5.39791 12.9087 4.55326 12.7033C3.81571 12.5244 3.81571 11.4756 4.55272 11.2968C5.39787 11.092 6.09461 10.4957 6.42756 9.6921C6.76051 8.88846 6.68962 7.97413 6.23678 7.23142C5.84218 6.58368 6.58438 5.8413 7.23295 6.23616C8.81116 7.19571 10.8606 6.34635 11.2966 4.55329C11.4662 3.85457 12.4164 3.81779 12.6679 4.44251L12.7031 4.55248ZM12 8C9.79083 8 7.99997 9.79086 7.99997 12C7.99997 14.2091 9.79083 16 12 16C14.2091 16 16 14.2091 16 12C16 9.79086 14.2091 8 12 8ZM12 10C13.1045 10 14 10.8954 14 12C14 13.1046 13.1045 14 12 14C10.8954 14 9.99997 13.1046 9.99997 12C9.99997 10.8954 10.8954 10 12 10Z"></path>
</symbol>
<symbol viewBox="0 0 24 24" id="share">
<path fill-rule="evenodd" clip-rule="evenodd" d="M14 6C14 3.79086 15.7909 2 18 2C20.2091 2 22 3.79086 22 6C22 8.20914 20.2091 10 18 10C16.7835 10 15.6938 9.45692 14.9601 8.59997L9.91933 11.1968C9.97222 11.4562 10 11.7249 10 12C10 12.2751 9.97222 12.5438 9.91933 12.8032L14.9601 15.4C15.6938 14.5431 16.7835 14 18 14C20.2091 14 22 15.7909 22 18C22 20.2091 20.2091 22 18 22C15.7909 22 14 20.2091 14 18C14 17.7249 14.0278 17.4562 14.0807 17.1968L9.03986 14.6C8.30623 15.4569 7.21654 16 6 16C3.79086 16 2 14.2091 2 12C2 9.79086 3.79086 8 6 8C7.21653 8 8.30623 8.54308 9.03986 9.40003L14.0807 6.80325C14.0278 6.54375 14 6.27512 14 6ZM7.8324 12.8027C7.82503 12.8156 7.8179 12.8287 7.81103 12.842C7.79586 12.8715 7.7823 12.9013 7.77031 12.9315C7.4353 13.5669 6.76823 14 6 14C4.89543 14 4 13.1046 4 12C4 10.8954 4.89543 10 6 10C6.76823 10 7.4353 10.4331 7.77031 11.0685C7.7823 11.0987 7.79586 11.1285 7.81103 11.158C7.8179 11.1713 7.82503 11.1844 7.8324 11.1973C7.94018 11.443 8 11.7145 8 12C8 12.2855 7.94018 12.557 7.8324 12.8027ZM16.1676 17.1973C16.0598 17.443 16 17.7145 16 18C16 19.1046 16.8954 20 18 20C19.1046 20 20 19.1046 20 18C20 16.8954 19.1046 16 18 16C17.2318 16 16.5647 16.4331 16.2297 17.0685C16.2177 17.0987 16.2041 17.1285 16.189 17.158C16.1821 17.1713 16.175 17.1844 16.1676 17.1973ZM18 8C17.2318 8 16.5647 7.56685 16.2297 6.93146C16.2177 6.90132 16.2041 6.87148 16.189 6.84204C16.1821 6.82871 16.175 6.81559 16.1676 6.8027C16.0598 6.557 16 6.28549 16 6C16 4.89543 16.8954 4 18 4C19.1046 4 20 4.89543 20 6C20 7.10457 19.1046 8 18 8Z"></path>
</symbol>
<symbol viewBox="0 0 24 24" id="shield">
<path fill-rule="evenodd" clip-rule="evenodd" d="M11.8839 2.00667L11.9978 2L12.1159 2.00667L12.1745 2.01524L12.2361 2.02821L12.3472 2.06198C12.4224 2.08979 12.495 2.12702 12.5634 2.17377L12.6679 2.25601L12.9225 2.47401C14.9396 4.14968 17.4897 5.04971 20.1118 5.01139L20.4542 5.00105C20.9143 4.98 21.3293 5.27602 21.4593 5.71798C22.4521 9.0953 22.0328 12.7309 20.2973 15.7936C18.5618 18.8562 15.6584 21.0841 12.2509 21.968C12.0863 22.0107 11.9134 22.0107 11.7488 21.968C8.34132 21.0841 5.43795 18.8562 3.70244 15.7936C1.96692 12.7309 1.54764 9.0953 2.54046 5.71798C2.67038 5.27602 3.0854 4.98 3.54558 5.00105C6.28724 5.12651 8.9724 4.22253 11.0772 2.47401L11.3399 2.2486L11.4364 2.17377C11.5047 2.12702 11.5774 2.08979 11.6525 2.06198L11.7649 2.02801C11.8056 2.01809 11.8446 2.01122 11.8839 2.00667ZM11.9999 4.29501L11.8234 4.43131C9.71144 6.00745 7.16906 6.90476 4.53567 7.00345L4.27186 7.00901L4.20832 7.31905C3.74256 9.75509 4.11301 12.2858 5.27161 14.4943L5.44248 14.8075C6.85661 17.303 9.18707 19.1436 11.9324 19.9443L11.9999 19.963L12.0674 19.9443C14.7071 19.1744 16.9632 17.4431 18.39 15.0925L18.5572 14.8075C19.8495 12.527 20.2793 9.8711 19.7914 7.31905L19.7269 7.00901L19.4641 7.00345C16.8307 6.90476 14.2883 6.00745 12.1763 4.43131L11.9999 4.29501ZM15.707 9.2929C15.3164 8.90238 14.6833 8.90238 14.2928 9.2929L10.9999 12.585L9.70697 11.2929L9.61276 11.2097C9.22047 10.9047 8.65324 10.9324 8.29276 11.2929C7.90223 11.6834 7.90223 12.3166 8.29276 12.7071L10.2928 14.7071L10.387 14.7903C10.7793 15.0953 11.3465 15.0676 11.707 14.7071L15.707 10.7071L15.7902 10.6129C16.0952 10.2206 16.0675 9.65339 15.707 9.2929Z"></path>
</symbol>
<symbol viewBox="0 0 24 24" id="show">
<path fill-rule="evenodd" clip-rule="evenodd" d="M12 4C16.2909 4 19.8627 6.4287 22.6646 11.154L22.8844 11.5329L22.9302 11.6328L22.9591 11.716L22.9736 11.7706L22.988 11.853L22.999 11.9535L22.9982 12.0639L22.9849 12.1744C22.9784 12.2112 22.9698 12.2477 22.9591 12.284L22.9203 12.3916L22.8844 12.4671L22.8682 12.4962C20.1039 17.3334 16.5685 19.8773 12.3127 19.9957L12 20C7.6044 20 3.96348 17.4514 1.13177 12.4962C0.956077 12.1887 0.956077 11.8113 1.13177 11.5038C3.96348 6.54862 7.6044 4 12 4ZM12 6C8.59033 6 5.69918 7.89478 3.27859 11.8059L3.161 12L3.27859 12.1941C5.63002 15.9935 8.42551 17.8901 11.709 17.9954L12 18C15.4097 18 18.3008 16.1052 20.7214 12.1941L20.838 12L20.7214 11.8059C18.37 8.00652 15.5745 6.10992 12.291 6.00464L12 6ZM12 9C10.3431 9 9 10.3431 9 12C9 13.6569 10.3431 15 12 15C13.6569 15 15 13.6569 15 12C15 10.3431 13.6569 9 12 9ZM12 11C12.5523 11 13 11.4477 13 12C13 12.5523 12.5523 13 12 13C11.4477 13 11 12.5523 11 12C11 11.4477 11.4477 11 12 11Z"></path>
</symbol>
<symbol viewBox="0 0 24 24" id="trash">
<path fill-rule="evenodd" clip-rule="evenodd" d="M15.9945 3.85074C15.9182 2.81588 15.0544 2 14 2H10L9.85074 2.00549C8.81588 2.08183 8 2.94564 8 4V6H5.01169H4.99054H4L3.88338 6.00673C3.38604 6.06449 3 6.48716 3 7C3 7.55228 3.44772 8 4 8H4.07987L5.00345 19.083L5.00819 19.2507C5.09634 20.7511 6.40232 22 8 22H16L16.1763 21.9949C17.7511 21.9037 19 20.5977 19 19L19.9199 8H20L20.1166 7.99327C20.614 7.93551 21 7.51284 21 7C21 6.44772 20.5523 6 20 6H16V4L15.9945 3.85074ZM14 6V4H10V6H14ZM9 8H6.08649L7 19C7 19.5128 7.38604 19.9355 7.88338 19.9933L8 20H16C16.5155 20 16.9398 19.61 16.9969 19.0414L17.0035 18.917L17.9132 8H15H9ZM10 10C10.5128 10 10.9355 10.386 10.9933 10.8834L11 11V17C11 17.5523 10.5523 18 10 18C9.48716 18 9.06449 17.614 9.00673 17.1166L9 17V11C9 10.4477 9.44772 10 10 10ZM14.9933 10.8834C14.9355 10.386 14.5128 10 14 10C13.4477 10 13 10.4477 13 11V17L13.0067 17.1166C13.0645 17.614 13.4872 18 14 18C14.5523 18 15 17.5523 15 17V11L14.9933 10.8834Z"></path>
</symbol>
<symbol viewBox="0 0 24 24" id="unfollow">
<path fill-rule="evenodd" clip-rule="evenodd" d="M4 7C4 4.23858 6.23858 2 9 2C11.7614 2 14 4.23858 14 7C14 9.76142 11.7614 12 9 12C6.23858 12 4 9.76142 4 7ZM12 7C12 5.34315 10.6569 4 9 4C7.34315 4 6 5.34315 6 7C6 8.65685 7.34315 10 9 10C10.6569 10 12 8.65685 12 7ZM11 14C13.6888 14 15.8818 16.1223 15.9954 18.7831L16 19V21C16 21.5523 15.5523 22 15 22C14.4872 22 14.0645 21.614 14.0067 21.1166L14 21V19C14 17.4023 12.7511 16.0963 11.1763 16.0051L11 16H7C5.40232 16 4.09634 17.2489 4.00509 18.8237L4 19V21C4 21.5523 3.55228 22 3 22C2.48716 22 2.06449 21.614 2.00673 21.1166L2 21V19C2 16.3112 4.12231 14.1182 6.78311 14.0046L7 14H11ZM23 11C23 10.4477 22.5523 10 22 10H16L15.8834 10.0067C15.386 10.0645 15 10.4872 15 11C15 11.5523 15.4477 12 16 12H22L22.1166 11.9933C22.614 11.9355 23 11.5128 23 11Z"></path>
</symbol>
<symbol viewBox="0 0 24 24" id="unmute">
<path fill-rule="evenodd" clip-rule="evenodd" d="M8.68784 3.90781C9.12534 3.21162 9.98786 2.89483 10.7805 3.15904C11.5731 3.42325 12.073 4.19419 12.0053 5.01364L12 5.05248V18.9445L12.0053 18.9873C12.0688 19.7556 11.6334 20.4812 10.9256 20.7866L10.7805 20.8419C9.98786 21.1061 9.12534 20.7893 8.68784 20.0931L8.669 20.0605L5.511 16.0005H4C2.94564 16.0005 2.08183 15.1846 2.00549 14.1497L2 14.0005V10.0005C2 8.94612 2.81588 8.08231 3.85074 8.00597L4 8.00048H5.51L8.669 3.93948L8.68784 3.90781ZM10 5.48548L6.78935 9.61442C6.62696 9.82321 6.38974 9.95771 6.13095 9.99188L6 10.0005H4V14.0005H6L6.11662 14.0072L6.18239 14.0172L6.22929 14.0269L6.33726 14.0588L6.40825 14.0874L6.53609 14.1562L6.621 14.2165L6.70655 14.2929L6.78935 14.3865L10 18.5145V5.48548ZM16.9222 4.37194C17.2694 3.94239 17.899 3.87557 18.3285 4.2227C20.6779 6.12123 22.0431 8.97993 22.0431 12.0005C22.0431 15.021 20.6779 17.8797 18.3285 19.7783C17.899 20.1254 17.2694 20.0586 16.9222 19.629C16.5751 19.1995 16.6419 18.5698 17.0715 18.2227C18.9509 16.7039 20.0431 14.4169 20.0431 12.0005C20.0431 9.58404 18.9509 7.29708 17.0715 5.77826C16.6419 5.43112 16.5751 4.8015 16.9222 4.37194ZM14.2 7.40048C14.5314 6.95865 15.1582 6.86911 15.6 7.20048C17.1108 8.33361 18 10.1119 18 12.0005C18 13.889 17.1108 15.6674 15.6 16.8005C15.1582 17.1319 14.5314 17.0423 14.2 16.6005C13.8686 16.1587 13.9582 15.5319 14.4 15.2005C15.4072 14.4451 16 13.2595 16 12.0005C16 10.7415 15.4072 9.5559 14.4 8.80048C13.9582 8.46911 13.8686 7.84231 14.2 7.40048Z"></path>
</symbol>
<symbol viewBox="0 0 24 24" id="user">
<path fill-rule="evenodd" clip-rule="evenodd" d="M9 16C7.34315 16 6 17.3431 6 19C6 19.5523 6.44772 20 7 20H17C17.5523 20 18 19.5523 18 19C18 17.3431 16.6569 16 15 16H9ZM4 19C4 16.2386 6.23858 14 9 14H15C17.7614 14 20 16.2386 20 19C20 20.6569 18.6569 22 17 22H7C5.34315 22 4 20.6569 4 19Z"></path>
<path fill-rule="evenodd" clip-rule="evenodd" d="M12 4C10.3431 4 9 5.34315 9 7C9 8.65685 10.3431 10 12 10C13.6569 10 15 8.65685 15 7C15 5.34315 13.6569 4 12 4ZM7 7C7 4.23858 9.23858 2 12 2C14.7614 2 17 4.23858 17 7C17 9.76142 14.7614 12 12 12C9.23858 12 7 9.76142 7 7Z"></path>
</symbol>
<symbol viewBox="0 0 24 24" id="votedown">
<path fill-rule="evenodd" clip-rule="evenodd" d="M16.9152 3.00397C18.3212 2.88436 19.484 3.98853 19.9305 5.60755L19.9806 5.80425L20.9806 10.8043L21 11.0004C21 12.5981 19.7511 13.904 18.1763 13.9953L18 14.0004L16 13.9994V18.0004C16 19.5981 14.7511 20.904 13.1763 20.9953L13 21.0004C11.4023 21.0004 10.0963 19.7514 10.0051 18.1766L10 18.0004V17.0004C10 15.4027 8.75108 14.0967 7.17627 14.0055L7 14.0004H4C2.94564 14.0004 2.08183 13.1845 2.00549 12.1496L2 12.0004V5.00037C2 3.94601 2.81588 3.0822 3.85074 3.00586L4 3.00037H6C6.59336 3.00037 7.12638 3.25877 7.49265 3.66917L7.6 3.80037L7.66785 3.75022C8.27388 3.31459 9.00671 3.04428 9.80036 3.00527L10 3.00037L16.9152 3.00397ZM17.0863 5.00088L10 5.00037C8.94564 5.00037 8.08183 5.81625 8.00549 6.85111L8 6.99937V12.1014L8.05897 12.1127C10.2435 12.5838 11.8972 14.4822 11.9954 16.7835L12 17.0004V18.0004C12 18.5527 12.4477 19.0004 13 19.0004C13.5128 19.0004 13.9355 18.6143 13.9933 18.117L14 18.0004V13.0004C14 12.4875 14.386 12.0649 14.8834 12.0071L15 12.0004H18C18.5128 12.0004 18.9355 11.6143 18.9933 11.117L18.995 11.0774L18.0264 6.22861C17.8463 5.46048 17.4614 5.03354 17.0863 5.00088ZM4 12.0004L6 11.9994V5.00037H4V12.0004Z"></path>
</symbol>
<symbol viewBox="0 0 24 24" id="voteup">
<path fill-rule="evenodd" clip-rule="evenodd" d="M13 3C14.5977 3 15.9037 4.24892 15.9949 5.82373L16 6V10H18C19.5977 10 20.9037 11.2489 20.9949 12.8237L21 13L20.9806 13.1961L19.9736 18.2282C19.5925 19.8538 18.4721 21.0241 17.1644 21.0082L17 21H10C9.12973 21 8.32438 20.7221 7.66785 20.2502L7.6 20.199C7.26045 20.6501 6.74061 20.9509 6.14926 20.9945L6 21H4C2.94564 21 2.08183 20.1841 2.00549 19.1493L2 19V12C2 10.9456 2.81588 10.0818 3.85074 10.0055L4 10H7C8.59768 10 9.90366 8.75108 9.99491 7.17627L10 7V6C10 4.34315 11.3431 3 13 3ZM13 5C12.4872 5 12.0645 5.38604 12.0067 5.88338L12 6V7C12 9.39808 10.3118 11.4018 8.05897 11.8876L8 11.898V17C8 18.0544 8.81588 18.9182 9.85074 18.9945L10 19L17.0848 19.0036C17.3784 19.0286 17.7714 18.6583 17.9757 17.9687L18.0194 17.8039L18.995 12.921L18.9933 12.8834C18.94 12.4243 18.5757 12.06 18.1166 12.0067L18 12H15C14.4872 12 14.0645 11.614 14.0067 11.1166L14 11V6C14 5.44772 13.5523 5 13 5ZM6 19V12H4V19H6Z"></path>
</symbol>
</defs>
</svg>
