<svg width="24" height="24" viewBox="0 0 24 24" fill="none" xmlns="http://www.w3.org/2000/svg">
<path fill-rule="evenodd" clip-rule="evenodd" d="M14.896 2.4166C10.6729 1.13886 6.11153 2.77981 3.67026 6.45502C1.22899 10.1302 1.48487 14.9711 4.29998 18.3685C7.11509 21.7658 11.8241 22.9168 15.8889 21.2009C16.3977 20.9862 16.6361 20.3996 16.4213 19.8908C16.2065 19.382 15.62 19.1436 15.1111 19.3584C11.8593 20.731 8.09208 19.8103 5.83999 17.0924C3.5879 14.3745 3.3832 10.5018 5.33621 7.56164C7.28923 4.62146 10.9384 3.3087 14.3168 4.3309C17.6953 5.3531 20.0046 8.46866 20 11.9984V13.4997L19.9932 13.6441C19.9205 14.4048 19.2797 14.9997 18.5 14.9997C17.6716 14.9997 17 14.3281 17 13.4997V11.9997C17 9.23823 14.7615 6.99965 12 6.99965C9.23861 6.99965 7.00003 9.23823 7.00003 11.9997C7.00003 14.7611 9.23861 16.9997 12 16.9997C13.4158 16.9997 14.6942 16.4112 15.6039 15.4655C16.2336 16.3915 17.2958 16.9997 18.5 16.9997C20.433 16.9997 22 15.4326 22 13.4997V11.9997L21.9963 11.7127C21.8796 7.42071 19.0273 3.66657 14.896 2.4166ZM15 11.9997C15 10.3428 13.6569 8.99965 12 8.99965C10.3432 8.99965 9.00003 10.3428 9.00003 11.9997C9.00003 13.6565 10.3432 14.9997 12 14.9997C13.6569 14.9997 15 13.6565 15 11.9997Z" fill="#FF00BF"/>
</svg>
