<svg width="24" height="24" viewBox="0 0 24 24" fill="none" xmlns="http://www.w3.org/2000/svg">
<path fill-rule="evenodd" clip-rule="evenodd" d="M12.0002 2C13.4204 2 14.61 2.9868 14.921 4.31213L14.9292 4.355C17.2399 5.65605 18.7617 8.02134 18.9816 10.7107L19.0002 11V13.931L19.0217 14.0674C19.1713 14.8732 19.6446 15.5831 20.3309 16.0312L20.4929 16.1298C21.3527 16.6167 21.0535 17.8964 20.1158 17.9941L20.0002 18H16.0002C16.0002 20.2091 14.2093 22 12.0002 22C9.858 22 8.10912 20.316 8.00509 18.1996L8.0002 18H4.0002C2.97267 18 2.61332 16.6362 3.50744 16.1298C4.28102 15.6918 4.81754 14.9351 4.9787 14.0674L5.0002 13.924L5.0013 10.9531C5.12658 8.28395 6.57311 5.87404 8.82264 4.50073L9.0702 4.355L9.07943 4.31213C9.3774 3.04202 10.4824 2.08282 11.8239 2.00509L12.0002 2ZM10.0002 18C10.0002 19.1046 10.8956 20 12.0002 20C13.0546 20 13.9184 19.1841 13.9947 18.1493L14.0002 18H10.0002ZM15.0002 16H9.0002H6.3692L6.51172 15.7345C6.75925 15.2337 6.9241 14.6889 6.99295 14.1202L7.0002 14V11L7.01661 10.7598C7.20175 8.68542 8.4961 6.81737 10.4352 5.9L10.5302 5.84809L10.6237 5.78214C10.7124 5.7115 10.787 5.62733 10.8458 5.53412L10.8986 5.43977C10.9474 5.34023 10.9801 5.23139 10.9935 5.11662L11.0069 4.88338C11.0647 4.38604 11.4874 4 12.0002 4C12.5525 4 13.0002 4.44772 13.0002 5L13.0083 5.12741C13.0513 5.46262 13.262 5.7571 13.5727 5.90403C15.5786 6.8525 16.8973 8.83053 17.0013 11.0469L17.0002 14L17.0074 14.1202L17.0436 14.3674C17.1422 14.9405 17.3388 15.4855 17.6193 15.9812L17.6302 16H15.0002Z" fill="#171717"/>
</svg>
