<svg width="24" height="24" viewBox="0 0 24 24" fill="none" xmlns="http://www.w3.org/2000/svg">
<path d="M18.0001 11C17.4001 11 17.0001 10.6 17.0001 10C17.0001 7.20003 14.8001 5.00001 12 5.00001C9.20003 5.00001 7.00001 7.20003 7.00001 10C7.00001 10.6 6.60001 11 6.00001 11C5.4 11 5 10.6 5 10C5 6.10002 8.10002 3 12 3C15.9001 3 19.0001 6.10002 19.0001 10C19.0001 10.6 18.6001 11 18.0001 11Z" fill="black"/>
<path d="M21 20C18.8 20 17 17.4 17 14C17 13.4 17.4 13 18 13C18.6 13 19 13.4 19 14C19 16.3 20.1 18 21 18C21.6 18 22 18.4 22 19C22 19.6 21.6 20 21 20Z" fill="black"/>
<path d="M3.00001 20C2.4 20 2 19.6 2 19C2 18.4 2.4 18 3.00001 18C3.90001 18 5.00002 16.3 5.00002 14C5.00002 13.4 5.40002 13 6.00002 13C6.60003 13 7.00003 13.4 7.00003 14C7.00003 17.4 5.20002 20 3.00001 20Z" fill="black"/>
<path d="M21.0001 20H3.00001C2.4 20 2 19.6 2 19C2 18.4 2.4 18 3.00001 18H21.0001C21.6001 18 22.0001 18.4 22.0001 19C22.0001 19.6 21.6001 20 21.0001 20Z" fill="black"/>
<path d="M6.00001 15C5.4 15 5 14.6 5 14V10C5 9.4 5.4 9 6.00001 9C6.60001 9 7.00001 9.4 7.00001 10V14C7.00001 14.6 6.60001 15 6.00001 15Z" fill="black"/>
<path d="M18 15C17.4 15 17 14.6 17 14V10C17 9.4 17.4 9 18 9C18.6 9 19 9.4 19 10V14C19 14.6 18.6 15 18 15Z" fill="black"/>
<path d="M12 23.9999C9.80001 23.9999 8 22.1999 8 19.9999C8 19.4999 8.1 19.0999 8.2 18.5999C8.4 18.0999 9.00001 17.7999 9.50001 17.9999C10 18.1999 10.3 18.7999 10.1 19.2999C10 19.5999 10 19.7999 10 19.9999C10 21.0999 10.9 21.9999 12 21.9999C13.1 21.9999 14 21.0999 14 19.9999C14 19.7999 14 19.5999 13.9 19.3999C13.7 18.8999 14 18.2999 14.5 18.0999C15 17.8999 15.6 18.1999 15.8 18.6999C16 19.0999 16 19.5999 16 20.0999C16 22.1999 14.2 23.9999 12 23.9999Z" fill="black"/>
<path d="M12 5.00003C11.4 5.00003 11 4.60003 11 4.00002V1.00001C11 0.400002 11.4 0 12 0C12.6 0 13 0.400002 13 1.00001V4.00002C13 4.60003 12.6 5.00003 12 5.00003Z" fill="black"/>
</svg>
