<svg width="36" height="36" viewBox="0 0 36 36" fill="none" xmlns="http://www.w3.org/2000/svg">
<path fill-rule="evenodd" clip-rule="evenodd" d="M22.5 4.5C24.0815 4.5 25.3772 5.72382 25.4918 7.27611L25.5 7.5C25.5 8.26925 26.0791 8.90326 26.8251 8.98991L27 9H28.5C30.8965 9 32.8555 10.8734 32.9924 13.2356L33 13.5V27C33 29.3965 31.1266 31.3555 28.7644 31.4924L28.5 31.5H7.5C5.10348 31.5 3.14451 29.6266 3.00764 27.2644L3 27V13.5C3 11.1035 4.87338 9.14451 7.23559 9.00764L7.5 9H9C9.82843 9 10.5 8.32843 10.5 7.5C10.5 5.91846 11.7238 4.62275 13.2761 4.50823L13.5 4.5H22.5ZM22.5 7.5H13.5L13.4924 7.76441C13.3606 10.0391 11.5391 11.8606 9.26441 11.9924L9 12H7.5C6.73075 12 6.09674 12.5791 6.01009 13.3251L6 13.5V27C6 27.7693 6.57906 28.4033 7.32507 28.4899L7.5 28.5H28.5C29.2693 28.5 29.9033 27.9209 29.9899 27.1749L30 27V13.5C30 12.7307 29.4209 12.0967 28.6749 12.0101L28.5 12H27C24.5147 12 22.5 9.98528 22.5 7.5ZM18 13.5C14.6863 13.5 12 16.1863 12 19.5C12 22.8137 14.6863 25.5 18 25.5C21.3137 25.5 24 22.8137 24 19.5C24 16.1863 21.3137 13.5 18 13.5ZM18 16.5C19.6569 16.5 21 17.8431 21 19.5C21 21.1569 19.6569 22.5 18 22.5C16.3431 22.5 15 21.1569 15 19.5C15 17.8431 16.3431 16.5 18 16.5Z" fill="white"/>
</svg>
