<svg width="36" height="36" viewBox="0 0 36 36" fill="none" xmlns="http://www.w3.org/2000/svg">
<path fill-rule="evenodd" clip-rule="evenodd" d="M9.91935 7.81456C9.33091 7.35702 8.48007 7.39861 7.93934 7.93934C7.35355 8.52513 7.35355 9.47487 7.93934 10.0607L15.8787 18L7.93934 25.9393L7.81456 26.0807C7.35702 26.6691 7.39861 27.5199 7.93934 28.0607C8.52513 28.6464 9.47487 28.6464 10.0607 28.0607L18 20.1213L25.9393 28.0607L26.0807 28.1854C26.6691 28.643 27.5199 28.6014 28.0607 28.0607C28.6464 27.4749 28.6464 26.5251 28.0607 25.9393L20.1213 18L28.0607 10.0607L28.1854 9.91935C28.643 9.33091 28.6014 8.48007 28.0607 7.93934C27.4749 7.35355 26.5251 7.35355 25.9393 7.93934L18 15.8787L10.0607 7.93934L9.91935 7.81456Z" fill="black"/>
</svg>
