<svg width="24" height="24" viewBox="0 0 24 24" fill="none" xmlns="http://www.w3.org/2000/svg">
<g clip-path="url(#clip0_954_7598)">
<path fill-rule="evenodd" clip-rule="evenodd" d="M8.56929 17.3737L11.9841 20.7885L15.399 17.3737H19.5C20.5493 17.3737 21.4 16.523 21.4 15.4737V4.5C21.4 3.45066 20.5493 2.6 19.5 2.6H4.5C3.45066 2.6 2.6 3.45066 2.6 4.5V15.4737C2.6 16.523 3.45066 17.3737 4.5 17.3737H8.56929ZM0 4.5C0 2.01472 2.01472 0 4.5 0H19.5C21.9853 0 24 2.01472 24 4.5V15.4737C24 17.959 21.9853 19.9737 19.5 19.9737H16.4759L12.7796 23.67C12.3403 24.1093 11.628 24.1093 11.1886 23.67L7.49233 19.9737H4.5C2.01472 19.9737 0 17.959 0 15.4737V4.5Z" fill="black"/>
<path fill-rule="evenodd" clip-rule="evenodd" d="M5.5 6.30005C5.5 5.74776 5.94772 5.30005 6.5 5.30005H17.3333C17.8855 5.30005 18.3333 5.74776 18.3333 6.30005C18.3333 6.85233 17.8855 7.30005 17.3333 7.30005H6.5C5.94772 7.30005 5.5 6.85233 5.5 6.30005Z" fill="black"/>
<path fill-rule="evenodd" clip-rule="evenodd" d="M5.5 10.3979C5.5 9.84566 5.94772 9.39795 6.5 9.39795H12.75C13.3023 9.39795 13.75 9.84566 13.75 10.3979C13.75 10.9502 13.3023 11.3979 12.75 11.3979H6.5C5.94772 11.3979 5.5 10.9502 5.5 10.3979Z" fill="black"/>
<path fill-rule="evenodd" clip-rule="evenodd" d="M5.5 14.1162C5.5 13.5639 5.94772 13.1162 6.5 13.1162H15.5C16.0523 13.1162 16.5 13.5639 16.5 14.1162C16.5 14.6685 16.0523 15.1162 15.5 15.1162H6.5C5.94772 15.1162 5.5 14.6685 5.5 14.1162Z" fill="black"/>
</g>
<defs>
<clipPath id="clip0_954_7598">
<rect width="24" height="23.9995" fill="white"/>
</clipPath>
</defs>
</svg>
