<svg width="24" height="24" viewBox="0 0 24 24" fill="none" xmlns="http://www.w3.org/2000/svg">
<g clip-path="url(#clip0_954_7606)">
<path d="M12 24C11.7 24 11.5 23.9 11.3 23.7L7.3 19.7C6.9 19.3 6.9 18.7 7.3 18.3C7.7 17.9 8.3 17.9 8.7 18.3H12H15.3C15.7 17.9 16.3 17.9 16.7 18.3C17.1 18.7 17.1 19.3 16.7 19.7L12.7 23.7C12.5 23.9 12.3 24 12 24Z" fill="#D04D2A"/>
<path fill-rule="evenodd" clip-rule="evenodd" d="M3 -0.00012207C1.34315 -0.00012207 0 1.34302 0 2.99987V16.909C0 18.5658 1.34315 19.909 3 19.909H21C22.6569 19.909 24 18.5658 24 16.909V2.99988C24 1.34302 22.6569 -0.00012207 21 -0.00012207H3ZM6.00001 6.99978H18C18.6 6.99978 19 6.59978 19 5.99978C19 5.39978 18.6 4.99978 18 4.99978H6.00001C5.40001 4.99978 5.00001 5.39978 5.00001 5.99978C5.00001 6.59978 5.40001 6.99978 6.00001 6.99978ZM13 10.9999H6.00001C5.40001 10.9999 5.00001 10.5999 5.00001 9.99987C5.00001 9.39987 5.40001 8.99987 6.00001 8.99987H13C13.6 8.99987 14 9.39987 14 9.99987C14 10.5999 13.6 10.9999 13 10.9999ZM6.00001 15H16C16.6 15 17 14.6 17 14C17 13.4 16.6 13 16 13H6.00001C5.40001 13 5.00001 13.4 5.00001 14C5.00001 14.6 5.40001 15 6.00001 15Z" fill="#D04D2A"/>
</g>
<defs>
<clipPath id="clip0_954_7606">
<rect width="24" height="24" fill="white"/>
</clipPath>
</defs>
</svg>
