<svg width="25" height="24" viewBox="0 0 25 24" fill="none" xmlns="http://www.w3.org/2000/svg">
<g clip-path="url(#clip0_954_7542)">
<path fill-rule="evenodd" clip-rule="evenodd" d="M2.48768 3.99392C3.74976 2.65621 5.44083 2 7.13195 2C8.77154 2 10.4361 2.63014 11.6727 3.86527C11.6735 3.86613 11.6744 3.86699 11.6753 3.86785L12.7354 4.92795L13.7955 3.86785C15.0575 2.63102 16.6982 2 18.3388 2C19.9795 2 21.6453 2.63102 22.8821 3.86785C25.381 6.36667 25.381 10.4558 22.8317 12.9543L13.4675 22.3186C13.0636 22.7477 12.382 22.7477 11.9529 22.3186L2.68963 13.0553C0.216117 10.5817 0.0644927 6.54317 2.48768 3.99392ZM20.944 5.74846C20.2435 5.06385 19.29 4.7 18.3388 4.7C17.3942 4.7 16.4398 5.0611 15.6938 5.78787L12.7354 8.74633L9.76607 5.77704C9.06301 5.07398 8.09634 4.7 7.13195 4.7C6.14028 4.7 5.17419 5.08087 4.45158 5.84678L4.44466 5.85412C3.07968 7.29011 3.1096 9.65682 4.59882 11.1461C4.59882 11.1461 4.59881 11.1461 4.59882 11.1461L12.7102 19.2575L20.9321 11.0356L20.9418 11.0261C22.4142 9.58298 22.4142 7.21861 20.9729 5.77738L20.944 5.74846Z" fill="black"/>
</g>
<defs>
<clipPath id="clip0_954_7542">
<rect width="24" height="24" fill="white" transform="translate(0.75)"/>
</clipPath>
</defs>
</svg>
