<svg width="24" height="24" viewBox="0 0 24 24" fill="none" xmlns="http://www.w3.org/2000/svg">
<path d="M14.3 15.7998C12.9 15.7998 11.5 15.1998 10.5 14.1998C9.10003 12.7998 8.60003 10.9998 9.00003 9.1998C9.00003 8.5998 9.50003 8.1998 10 8.3998C10.5 8.4998 10.9 8.9998 10.8 9.5998C10.6 10.6998 10.9 11.8998 11.7 12.6998C12.6 13.5998 13.8 13.8998 14.9 13.6998C15.5 13.5998 16.1 13.2998 16.5 12.8998C16.6 12.7998 16.6 12.7998 16.7 12.7998L19.6 9.8998C20.9 8.5998 20.9 6.3998 19.6 4.9998C18.2 3.5998 16 3.5998 14.6 4.8998L13.1 6.3998L13 6.4998C12.7 6.8998 12 6.9998 11.6 6.6998C11.2 6.3998 11.1 5.6998 11.4 5.2998C11.6 5.0998 11.7 4.9998 11.8 4.9998L13.3 3.4998C15.4 1.3998 18.9 1.3998 21 3.4998C23.2 5.6998 23.2 9.0998 21.1 11.2998L18.2 14.1998C18.1 14.2998 18 14.3998 17.9 14.4998C17.2 15.0998 16.4 15.4998 15.4 15.6998C15 15.6998 14.6 15.7998 14.3 15.7998Z" fill="black"/>
<path d="M7.90012 22.0999C6.50012 22.0999 5.10012 21.5999 4.00012 20.4999C1.80012 18.2999 1.80012 14.8999 3.90012 12.6999L6.80012 9.79986C7.00012 9.79986 7.00012 9.69986 7.10012 9.59986C7.80012 8.99986 8.60012 8.59986 9.60012 8.39986C11.4001 7.99986 13.2001 8.59986 14.6001 9.89986C16.0001 11.2999 16.5001 13.0999 16.1001 14.8999C16.0001 15.3999 15.5001 15.7999 14.9001 15.6999C14.4001 15.5999 14.0001 15.0999 14.1001 14.4999C14.3001 13.3999 14.0001 12.1999 13.2001 11.3999C12.3001 10.4999 11.1001 10.1999 10.0001 10.3999C9.40012 10.4999 8.80012 10.7999 8.40012 11.1999C8.30012 11.2999 8.30012 11.2999 8.20012 11.2999L5.30012 14.1999C4.00012 15.4999 4.00012 17.6999 5.30012 19.0999C6.70012 20.4999 8.90012 20.4999 10.3001 19.1999L11.8001 17.6999L11.9001 17.5999C12.2001 17.1999 12.9001 17.0999 13.3001 17.3999C13.7001 17.6999 13.8001 18.3999 13.5001 18.7999C13.4001 18.8999 13.3001 18.9999 13.2001 19.0999L11.7001 20.5999C10.7001 21.5999 9.30012 22.0999 7.90012 22.0999Z" fill="black"/>
</svg>
