<svg width="24" height="24" viewBox="0 0 24 24" fill="none" xmlns="http://www.w3.org/2000/svg">
<path fill-rule="evenodd" clip-rule="evenodd" d="M5.63609 4.63598C2.12139 8.15063 2.12129 13.849 5.63587 17.3638L9.87998 21.6069C11.0516 22.7773 12.9494 22.7773 14.1208 21.6072L18.3641 17.3638C21.8787 13.849 21.8786 8.15063 18.3639 4.63598C14.8492 1.12134 9.1508 1.12134 5.63609 4.63598ZM16.9497 6.05021C19.6834 8.78382 19.6834 13.2159 16.9499 15.9496L12.7069 20.1926C12.3168 20.5823 11.6842 20.5823 11.2937 20.1922L7.05002 15.9495C4.31656 13.2159 4.31664 8.78382 7.05029 6.05021C9.78396 3.3166 14.216 3.3166 16.9497 6.05021ZM12 6.99971C9.79086 6.99971 8 8.79057 8 10.9997C8 13.2088 9.79086 14.9997 12 14.9997C14.2091 14.9997 16 13.2088 16 10.9997C16 8.79057 14.2091 6.99971 12 6.99971ZM12 8.99971C13.1046 8.99971 14 9.89514 14 10.9997C14 12.1043 13.1046 12.9997 12 12.9997C10.8954 12.9997 10 12.1043 10 10.9997C10 9.89514 10.8954 8.99971 12 8.99971Z" fill="#171717"/>
</svg>
