<svg width="24" height="24" viewBox="0 0 24 24" fill="none" xmlns="http://www.w3.org/2000/svg">
<path d="M19 11.5C19 10.6716 19.6716 10 20.5 10C21.3284 10 22 10.6716 22 11.5C22 12.3284 21.3284 13 20.5 13C19.6716 13 19 12.3284 19 11.5Z" fill="#171717"/>
<path fill-rule="evenodd" clip-rule="evenodd" d="M5.98069 13.8037L6.71565 17.4785C6.77628 17.7816 7.04244 17.9998 7.35158 17.9998C7.70976 17.9998 8.00011 17.7095 8.00011 17.3513V13.9998H10.0001V17.3513C10.0001 18.814 8.81432 19.9998 7.35158 19.9998C6.08908 19.9998 5.00208 19.1087 4.75449 17.8707L4.01953 14.1959L5.98069 13.8037Z" fill="#171717"/>
<path fill-rule="evenodd" clip-rule="evenodd" d="M21 7.50919C21 4.80596 18.0659 3.12317 15.7327 4.48818L11.8344 6.76876C10.4556 7.57534 8.88709 8.00045 7.28976 8.00045H5.5C3.567 8.00045 2 9.56746 2 11.5005C2 13.4334 3.567 15.0005 5.5 15.0005H7.28569C8.88534 15.0005 10.4561 15.4268 11.8362 16.2356L15.7304 18.5177C18.0636 19.8851 21 18.2025 21 15.4981V7.50919ZM16.7426 6.21447C17.7425 5.62947 19 6.35067 19 7.50919V15.4981C19 16.6571 17.7415 17.3782 16.7416 16.7922L12.8474 14.5101C12.2573 14.1643 11.6387 13.8756 11 13.6465V9.35585C11.6375 9.12743 12.2551 8.83974 12.8443 8.49504L16.7426 6.21447ZM9 9.86669C8.43632 9.95541 7.86457 10.0005 7.28976 10.0005H5.5C4.67157 10.0005 4 10.672 4 11.5005C4 12.3289 4.67157 13.0005 5.5 13.0005H7.28569C7.86188 13.0005 8.435 13.0457 9 13.1349V9.86669Z" fill="#171717"/>
</svg>
