<svg width="24" height="24" viewBox="0 0 24 24" fill="none" xmlns="http://www.w3.org/2000/svg">
<path fill-rule="evenodd" clip-rule="evenodd" d="M8.68784 3.90781C9.12534 3.21162 9.98786 2.89483 10.7805 3.15904C11.5731 3.42325 12.073 4.19419 12.0053 5.01364L12 5.05248V18.9445L12.0053 18.9873C12.0688 19.7556 11.6334 20.4812 10.9256 20.7866L10.7805 20.8419C9.98786 21.1061 9.12534 20.7893 8.68784 20.0931L8.669 20.0605L5.511 16.0005H4C2.94564 16.0005 2.08183 15.1846 2.00549 14.1497L2 14.0005V10.0005C2 8.94612 2.81588 8.08231 3.85074 8.00597L4 8.00048H5.51L8.669 3.93948L8.68784 3.90781ZM10 5.48548L6.78935 9.61442C6.62696 9.82321 6.38974 9.95771 6.13095 9.99188L6 10.0005H4V14.0005H6L6.11662 14.0072L6.18239 14.0172L6.22929 14.0269L6.33726 14.0588L6.40825 14.0874L6.53609 14.1562L6.621 14.2165L6.70655 14.2929L6.78935 14.3865L10 18.5145V5.48548ZM16.7071 9.29337L16.6129 9.21018L16.5114 9.14086C16.1275 8.91209 15.6233 8.96293 15.2929 9.29337C14.9024 9.6839 14.9024 10.3171 15.2929 10.7076L16.585 12.0005L15.2929 13.2934L15.2097 13.3876C14.9047 13.7799 14.9324 14.3471 15.2929 14.7076C15.6834 15.0981 16.3166 15.0981 16.7071 14.7076L18 13.4155L19.2929 14.7076L19.3871 14.7908C19.7794 15.0958 20.3466 15.0681 20.7071 14.7076C21.0976 14.3171 21.0976 13.6839 20.7071 13.2934L19.415 12.0005L20.7071 10.7076L20.7903 10.6134C21.0953 10.2211 21.0676 9.65386 20.7071 9.29337C20.3166 8.90285 19.6834 8.90285 19.2929 9.29337L18 10.5855L16.7071 9.29337Z" fill="#171717"/>
</svg>
