<svg width="25" height="24" viewBox="0 0 25 24" fill="none" xmlns="http://www.w3.org/2000/svg">
<path fill-rule="evenodd" clip-rule="evenodd" d="M16.5 5L16.6166 4.99327C17.114 4.93551 17.5 4.51284 17.5 4C17.5 3.44772 17.0523 3 16.5 3H15.5H9.5H8.5L8.38338 3.00673C7.88604 3.06449 7.5 3.48716 7.5 4C7.5 4.55228 7.94772 5 8.5 5V9.762L6.60557 13.5528L6.55979 13.6594C6.52033 13.7683 6.5 13.8836 6.5 14V16L6.50673 16.1166C6.56449 16.614 6.98716 17 7.5 17H11.5V21L11.5067 21.1166C11.5645 21.614 11.9872 22 12.5 22C13.0523 22 13.5 21.5523 13.5 21V17H17.5L17.6166 16.9933C18.114 16.9355 18.5 16.5128 18.5 16V14L18.4933 13.8842C18.4798 13.7691 18.4465 13.6569 18.3944 13.5528L16.5 9.764V5ZM14.5 5H10.5V10C10.5 10.1164 10.4797 10.2317 10.4402 10.3406L10.3944 10.4472L8.5 14.235V15H12.5H16.5V14.237L14.6056 10.4472C14.5535 10.3431 14.5202 10.2309 14.5067 10.1158L14.5 10V5Z" fill="#171717"/>
</svg>
