<svg width="25" height="24" viewBox="0 0 25 24" fill="none" xmlns="http://www.w3.org/2000/svg">
<path d="M21.0803 13.458C20.4529 13.458 20.0345 13.0397 20.0345 12.4122C20.0345 8.3336 16.7925 5.09161 12.7139 5.09161C10.7269 5.09161 8.94902 5.82367 7.4849 7.18321C7.17116 7.60153 6.43909 7.60153 6.02077 7.18321C5.60245 6.76489 5.60245 6.13741 6.02077 5.71909C7.79864 3.94122 10.204 3 12.7139 3C17.9429 3 22.1261 7.18321 22.1261 12.4122C22.1261 13.0397 21.7078 13.458 21.0803 13.458Z" fill="#D35530"/>
<path d="M12.714 21.8245C7.48497 21.8245 3.30176 17.6413 3.30176 12.4123C3.30176 11.7848 3.72008 11.3665 4.34756 11.3665C4.97504 11.3665 5.39336 11.7848 5.39336 12.4123C5.39336 16.4909 8.63535 19.7329 12.714 19.7329C14.701 19.7329 16.4789 19.0008 17.943 17.6413C18.3613 17.223 18.9888 17.223 19.4071 17.6413C19.8254 18.0596 19.8254 18.6871 19.4071 19.1054C17.6293 20.8833 15.2239 21.8245 12.714 21.8245Z" fill="#D35530"/>
<path d="M21.0797 13.4582C20.8705 13.4582 20.6614 13.3536 20.4522 13.249L16.8965 10.6345C16.4781 10.3208 16.3736 9.58871 16.6873 9.17039C17.001 8.75207 17.7331 8.64749 18.1514 8.96123L21.7072 11.5757C22.1255 11.8895 22.2301 12.6215 21.9163 13.0399C21.7072 13.3536 21.3934 13.4582 21.0797 13.4582Z" fill="#D35530"/>
<path d="M21.0806 13.4581C20.8714 13.4581 20.6623 13.3535 20.4531 13.249C20.0348 12.9352 19.9302 12.2032 20.2439 11.7848L22.8585 8.22911C23.1722 7.81079 23.9043 7.70621 24.3226 8.01995C24.7409 8.33369 24.8455 9.06575 24.5317 9.48407L21.9172 13.0398C21.7081 13.3535 21.3943 13.4581 21.0806 13.4581Z" fill="#D35530"/>
<path d="M7.90292 16.0727C7.69376 16.0727 7.4846 15.9681 7.27544 15.8635L3.71971 13.249C3.30139 12.9353 3.19681 12.2032 3.51055 11.7849C3.82429 11.3666 4.45177 11.262 4.97467 11.5757L8.5304 14.1902C8.94873 14.504 9.05331 15.236 8.73956 15.6544C8.5304 15.9681 8.21666 16.0727 7.90292 16.0727Z" fill="#D35530"/>
<path d="M1.73293 17.0139C1.52377 17.0139 1.31461 16.9093 1.10545 16.8048C0.687129 16.491 0.582549 15.7589 0.89629 15.3406L3.5108 11.7849C3.82454 11.3666 4.45202 11.262 4.97492 11.5757C5.39324 11.8895 5.49783 12.6215 5.18408 13.0399L2.56958 16.5956C2.36041 16.9093 2.04667 17.0139 1.73293 17.0139Z" fill="#D35530"/>
</svg>
