<svg width="24" height="24" viewBox="0 0 24 24" fill="none" xmlns="http://www.w3.org/2000/svg">
<path fill-rule="evenodd" clip-rule="evenodd" d="M18.6546 3.23047C17.4976 3.23047 16.5596 4.16846 16.5596 5.32554C16.5596 6.48262 17.4976 7.42061 18.6546 7.42061C19.8117 7.42061 20.7497 6.48262 20.7497 5.32554C20.7497 4.16846 19.8117 3.23047 18.6546 3.23047ZM14.0596 5.32554C14.0596 2.78775 16.1169 0.730469 18.6546 0.730469C21.1924 0.730469 23.2497 2.78775 23.2497 5.32554C23.2497 7.86333 21.1924 9.92061 18.6546 9.92061C16.1169 9.92061 14.0596 7.86333 14.0596 5.32554Z" fill="black"/>
<path fill-rule="evenodd" clip-rule="evenodd" d="M5.35191 9.89294C4.19483 9.89294 3.25684 10.8309 3.25684 11.988C3.25684 13.1451 4.19483 14.0831 5.35191 14.0831C6.50898 14.0831 7.44698 13.1451 7.44698 11.988C7.44698 10.8309 6.50898 9.89294 5.35191 9.89294ZM0.756836 11.988C0.756836 9.45023 2.81412 7.39294 5.35191 7.39294C7.88969 7.39294 9.94698 9.45023 9.94698 11.988C9.94698 14.5258 7.88969 16.5831 5.35191 16.5831C2.81412 16.5831 0.756836 14.5258 0.756836 11.988Z" fill="black"/>
<path fill-rule="evenodd" clip-rule="evenodd" d="M18.6546 16.6014C17.4976 16.6014 16.5596 17.5394 16.5596 18.6965C16.5596 19.8536 17.4976 20.7916 18.6546 20.7916C19.8117 20.7916 20.7497 19.8536 20.7497 18.6965C20.7497 17.5394 19.8117 16.6014 18.6546 16.6014ZM14.0596 18.6965C14.0596 16.1587 16.1169 14.1014 18.6546 14.1014C21.1924 14.1014 23.2497 16.1587 23.2497 18.6965C23.2497 21.2343 21.1924 23.2916 18.6546 23.2916C16.1169 23.2916 14.0596 21.2343 14.0596 18.6965Z" fill="black"/>
<path fill-rule="evenodd" clip-rule="evenodd" d="M15.9118 8.12741L8.16296 12.0018L7.04492 9.76575L14.7937 5.89134L15.9118 8.12741Z" fill="black"/>
<path fill-rule="evenodd" clip-rule="evenodd" d="M15.9123 18.3122L8.16341 14.3277L9.30664 12.1044L17.0555 16.0889L15.9123 18.3122Z" fill="black"/>
</svg>
