<svg width="24" height="24" viewBox="0 0 24 24" fill="none" xmlns="http://www.w3.org/2000/svg">
<path fill-rule="evenodd" clip-rule="evenodd" d="M11.8839 2.00667L11.9978 2L12.1159 2.00667L12.1745 2.01524L12.2361 2.02821L12.3472 2.06198C12.4224 2.08979 12.495 2.12702 12.5634 2.17377L12.6679 2.25601L12.9225 2.47401C14.9396 4.14968 17.4897 5.04971 20.1118 5.01139L20.4542 5.00105C20.9143 4.98 21.3293 5.27602 21.4593 5.71798C22.4521 9.0953 22.0328 12.7309 20.2973 15.7936C18.5618 18.8562 15.6584 21.0841 12.2509 21.968C12.0863 22.0107 11.9134 22.0107 11.7488 21.968C8.34132 21.0841 5.43795 18.8562 3.70244 15.7936C1.96692 12.7309 1.54764 9.0953 2.54046 5.71798C2.67038 5.27602 3.0854 4.98 3.54558 5.00105C6.28724 5.12651 8.9724 4.22253 11.0772 2.47401L11.3399 2.2486L11.4364 2.17377C11.5047 2.12702 11.5774 2.08979 11.6525 2.06198L11.7649 2.02801C11.8056 2.01809 11.8446 2.01122 11.8839 2.00667ZM11.9999 4.29501L11.8234 4.43131C9.71144 6.00745 7.16906 6.90476 4.53567 7.00345L4.27186 7.00901L4.20832 7.31905C3.74256 9.75509 4.11301 12.2858 5.27161 14.4943L5.44248 14.8075C6.85661 17.303 9.18707 19.1436 11.9324 19.9443L11.9999 19.963L12.0674 19.9443C14.7071 19.1744 16.9632 17.4431 18.39 15.0925L18.5572 14.8075C19.8495 12.527 20.2793 9.8711 19.7914 7.31905L19.7269 7.00901L19.4641 7.00345C16.8307 6.90476 14.2883 6.00745 12.1763 4.43131L11.9999 4.29501ZM15.707 9.2929C15.3164 8.90238 14.6833 8.90238 14.2928 9.2929L10.9999 12.585L9.70697 11.2929L9.61276 11.2097C9.22047 10.9047 8.65324 10.9324 8.29276 11.2929C7.90223 11.6834 7.90223 12.3166 8.29276 12.7071L10.2928 14.7071L10.387 14.7903C10.7793 15.0953 11.3465 15.0676 11.707 14.7071L15.707 10.7071L15.7902 10.6129C16.0952 10.2206 16.0675 9.65339 15.707 9.2929Z" fill="#171717"/>
</svg>
