<svg width="24" height="24" viewBox="0 0 24 24" fill="none" xmlns="http://www.w3.org/2000/svg">
<path fill-rule="evenodd" clip-rule="evenodd" d="M8.68784 3.90781C9.12534 3.21162 9.98786 2.89483 10.7805 3.15904C11.5731 3.42325 12.073 4.19419 12.0053 5.01364L12 5.05248V18.9445L12.0053 18.9873C12.0688 19.7556 11.6334 20.4812 10.9256 20.7866L10.7805 20.8419C9.98786 21.1061 9.12534 20.7893 8.68784 20.0931L8.669 20.0605L5.511 16.0005H4C2.94564 16.0005 2.08183 15.1846 2.00549 14.1497L2 14.0005V10.0005C2 8.94612 2.81588 8.08231 3.85074 8.00597L4 8.00048H5.51L8.669 3.93948L8.68784 3.90781ZM10 5.48548L6.78935 9.61442C6.62696 9.82321 6.38974 9.95771 6.13095 9.99188L6 10.0005H4V14.0005H6L6.11662 14.0072L6.18239 14.0172L6.22929 14.0269L6.33726 14.0588L6.40825 14.0874L6.53609 14.1562L6.621 14.2165L6.70655 14.2929L6.78935 14.3865L10 18.5145V5.48548ZM16.9222 4.37194C17.2694 3.94239 17.899 3.87557 18.3285 4.2227C20.6779 6.12123 22.0431 8.97993 22.0431 12.0005C22.0431 15.021 20.6779 17.8797 18.3285 19.7783C17.899 20.1254 17.2694 20.0586 16.9222 19.629C16.5751 19.1995 16.6419 18.5698 17.0715 18.2227C18.9509 16.7039 20.0431 14.4169 20.0431 12.0005C20.0431 9.58404 18.9509 7.29708 17.0715 5.77826C16.6419 5.43112 16.5751 4.8015 16.9222 4.37194ZM14.2 7.40048C14.5314 6.95865 15.1582 6.86911 15.6 7.20048C17.1108 8.33361 18 10.1119 18 12.0005C18 13.889 17.1108 15.6674 15.6 16.8005C15.1582 17.1319 14.5314 17.0423 14.2 16.6005C13.8686 16.1587 13.9582 15.5319 14.4 15.2005C15.4072 14.4451 16 13.2595 16 12.0005C16 10.7415 15.4072 9.5559 14.4 8.80048C13.9582 8.46911 13.8686 7.84231 14.2 7.40048Z" fill="#171717"/>
</svg>
