<svg width="24" height="24" viewBox="0 0 24 24" fill="none" xmlns="http://www.w3.org/2000/svg">
<path fill-rule="evenodd" clip-rule="evenodd" d="M16.9152 3.00397C18.3212 2.88436 19.484 3.98853 19.9305 5.60755L19.9806 5.80425L20.9806 10.8043L21 11.0004C21 12.5981 19.7511 13.904 18.1763 13.9953L18 14.0004L16 13.9994V18.0004C16 19.5981 14.7511 20.904 13.1763 20.9953L13 21.0004C11.4023 21.0004 10.0963 19.7514 10.0051 18.1766L10 18.0004V17.0004C10 15.4027 8.75108 14.0967 7.17627 14.0055L7 14.0004H4C2.94564 14.0004 2.08183 13.1845 2.00549 12.1496L2 12.0004V5.00037C2 3.94601 2.81588 3.0822 3.85074 3.00586L4 3.00037H6C6.59336 3.00037 7.12638 3.25877 7.49265 3.66917L7.6 3.80037L7.66785 3.75022C8.27388 3.31459 9.00671 3.04428 9.80036 3.00527L10 3.00037L16.9152 3.00397ZM17.0863 5.00088L10 5.00037C8.94564 5.00037 8.08183 5.81625 8.00549 6.85111L8 6.99937V12.1014L8.05897 12.1127C10.2435 12.5838 11.8972 14.4822 11.9954 16.7835L12 17.0004V18.0004C12 18.5527 12.4477 19.0004 13 19.0004C13.5128 19.0004 13.9355 18.6143 13.9933 18.117L14 18.0004V13.0004C14 12.4875 14.386 12.0649 14.8834 12.0071L15 12.0004H18C18.5128 12.0004 18.9355 11.6143 18.9933 11.117L18.995 11.0774L18.0264 6.22861C17.8463 5.46048 17.4614 5.03354 17.0863 5.00088ZM4 12.0004L6 11.9994V5.00037H4V12.0004Z" fill="#171717"/>
</svg>
